<?xml version="1.0" encoding="UTF-8" standalone="no"?>
<!DOCTYPE svg PUBLIC "-//W3C//DTD SVG 1.1//EN"
 "http://www.w3.org/Graphics/SVG/1.1/DTD/svg11.dtd">
<!-- Generated by graphviz version 2.43.0 (0)
 -->
<!-- Title: fuzzer_tool Pages: 1 -->
<svg width="1676pt" height="1044pt"
 viewBox="0.00 0.00 1676.00 1044.00" xmlns="http://www.w3.org/2000/svg" xmlns:xlink="http://www.w3.org/1999/xlink">
<g id="graph0" class="graph" transform="scale(1 1) rotate(0) translate(4 1040)">
<title>fuzzer_tool</title>
<polygon fill="white" stroke="transparent" points="-4,4 -4,-1040 1672,-1040 1672,4 -4,4"/>
<g id="clust1" class="cluster">
<title>cluster_start</title>
<path fill="#f6f7f9" stroke="#c8ccd2" stroke-width="1.3" d="M371,-838C371,-838 601,-838 601,-838 607,-838 613,-844 613,-850 613,-850 613,-1016 613,-1016 613,-1022 607,-1028 601,-1028 601,-1028 371,-1028 371,-1028 365,-1028 359,-1022 359,-1016 359,-1016 359,-850 359,-850 359,-844 365,-838 371,-838"/>
<text text-anchor="middle" x="387" y="-1015.2" font-family="Helvetica Bold" font-size="11.00" fill="#3c4551">Startup</text>
</g>
<g id="clust2" class="cluster">
<title>cluster_sched</title>
<path fill="#f2f8f4" stroke="#bcd0c4" stroke-width="1.3" d="M499,-711C499,-711 1648,-711 1648,-711 1654,-711 1660,-717 1660,-723 1660,-723 1660,-795 1660,-795 1660,-801 1654,-807 1648,-807 1648,-807 499,-807 499,-807 493,-807 487,-801 487,-795 487,-795 487,-723 487,-723 487,-717 493,-711 499,-711"/>
<text text-anchor="middle" x="591.5" y="-794.2" font-family="Helvetica Bold" font-size="11.00" fill="#33604a">1 · Scheduling &#160;&#160;— &#160;&#160;what to fuzz next</text>
</g>
<g id="clust3" class="cluster">
<title>cluster_mut</title>
<path fill="#f4f4fa" stroke="#c3c6da" stroke-width="1.3" d="M96,-573C96,-573 776,-573 776,-573 782,-573 788,-579 788,-585 788,-585 788,-668 788,-668 788,-674 782,-680 776,-680 776,-680 96,-680 96,-680 90,-680 84,-674 84,-668 84,-668 84,-585 84,-585 84,-579 90,-573 96,-573"/>
<text text-anchor="middle" x="210" y="-667.2" font-family="Helvetica Bold" font-size="11.00" fill="#454a75">2 · Mutation &#160;&#160;— &#160;&#160;147 operators / 9 categories</text>
</g>
<g id="clust4" class="cluster">
<title>cluster_exec</title>
<path fill="#fbf4f4" stroke="#d9c2c2" stroke-width="1.3" d="M342,-359C342,-359 752,-359 752,-359 758,-359 764,-365 764,-371 764,-371 764,-530 764,-530 764,-536 758,-542 752,-542 752,-542 342,-542 342,-542 336,-542 330,-536 330,-530 330,-530 330,-371 330,-371 330,-365 336,-359 342,-359"/>
<text text-anchor="middle" x="372.5" y="-529.2" font-family="Helvetica Bold" font-size="11.00" fill="#7a4a4a">3 · Execution</text>
</g>
<g id="clust5" class="cluster">
<title>cluster_fb</title>
<path fill="#f2f7fa" stroke="#b9cbd8" stroke-width="1.3" d="M111,-105C111,-105 685,-105 685,-105 691,-105 697,-111 697,-117 697,-117 697,-316 697,-316 697,-322 691,-328 685,-328 685,-328 111,-328 111,-328 105,-328 99,-322 99,-316 99,-316 99,-117 99,-117 99,-111 105,-105 111,-105"/>
<text text-anchor="middle" x="196.5" y="-315.2" font-family="Helvetica Bold" font-size="11.00" fill="#37596e">4 · Feedback &#160;&#160;— &#160;&#160;what came back</text>
</g>
<g id="clust6" class="cluster">
<title>cluster_corpus</title>
<path fill="#f7f4fa" stroke="#cfc6d8" stroke-width="1.3" d="M717,-105C717,-105 927,-105 927,-105 933,-105 939,-111 939,-117 939,-117 939,-189 939,-189 939,-195 933,-201 927,-201 927,-201 717,-201 717,-201 711,-201 705,-195 705,-189 705,-189 705,-117 705,-117 705,-111 711,-105 717,-105"/>
<text text-anchor="middle" x="763.5" y="-188.2" font-family="Helvetica Bold" font-size="11.00" fill="#5a4a6b">5 · Corpus lifecycle</text>
</g>
<g id="clust7" class="cluster">
<title>cluster_crash</title>
<path fill="#fbf6f1" stroke="#d8c4b0" stroke-width="1.3" d="M867,-237.5C867,-237.5 1129,-237.5 1129,-237.5 1135,-237.5 1141,-243.5 1141,-249.5 1141,-249.5 1141,-310.5 1141,-310.5 1141,-316.5 1135,-322.5 1129,-322.5 1129,-322.5 867,-322.5 867,-322.5 861,-322.5 855,-316.5 855,-310.5 855,-310.5 855,-249.5 855,-249.5 855,-243.5 861,-237.5 867,-237.5"/>
<text text-anchor="middle" x="901" y="-309.7" font-family="Helvetica Bold" font-size="11.00" fill="#7a5638">Crash pipeline</text>
</g>
<g id="clust8" class="cluster">
<title>cluster_obs</title>
<path fill="#f6f7f9" stroke="#c8ccd2" stroke-width="1.3" d="M20,-8C20,-8 284,-8 284,-8 290,-8 296,-14 296,-20 296,-20 296,-70 296,-70 296,-76 290,-82 284,-82 284,-82 20,-82 20,-82 14,-82 8,-76 8,-70 8,-70 8,-20 8,-20 8,-14 14,-8 20,-8"/>
<text text-anchor="middle" x="51" y="-69.2" font-family="Helvetica Bold" font-size="11.00" fill="#3c4551">Observability</text>
</g>
<!-- cli -->
<g id="node1" class="node">
<title>cli</title>
<path fill="#e3e7ec" stroke="transparent" stroke-width="0" d="M593.5,-1000C593.5,-1000 412.5,-1000 412.5,-1000 406.5,-1000 400.5,-994 400.5,-988 400.5,-988 400.5,-952 400.5,-952 400.5,-946 406.5,-940 412.5,-940 412.5,-940 593.5,-940 593.5,-940 599.5,-940 605.5,-946 605.5,-952 605.5,-952 605.5,-988 605.5,-988 605.5,-994 599.5,-1000 593.5,-1000"/>
<text text-anchor="start" x="412.5" y="-984" font-family="Helvetica,sans-Serif" font-size="10.00" fill="#242a31">cli/commands.py</text>
<text text-anchor="start" x="412.5" y="-973" font-family="Helvetica,sans-Serif" font-size="10.00" fill="#242a31">fuzz · rank · minimize · sweep · tmin</text>
<text text-anchor="start" x="412.5" y="-962" font-family="Helvetica,sans-Serif" font-size="10.00" fill="#242a31">root&#45;cause · replay · verify · estimate</text>
<text text-anchor="start" x="412.5" y="-951" font-family="Helvetica,sans-Serif" font-size="10.00" fill="#242a31">import · ppmd</text>
</g>
<!-- fuzzer -->
<g id="node3" class="node">
<title>fuzzer</title>
<path fill="#3f4a58" stroke="transparent" stroke-width="0" d="M969,-889.5C969,-889.5 641,-889.5 641,-889.5 635,-889.5 629,-883.5 629,-877.5 629,-877.5 629,-863.5 629,-863.5 629,-857.5 635,-851.5 641,-851.5 641,-851.5 969,-851.5 969,-851.5 975,-851.5 981,-857.5 981,-863.5 981,-863.5 981,-877.5 981,-877.5 981,-883.5 975,-889.5 969,-889.5"/>
<text text-anchor="middle" x="805" y="-867.5" font-family="Helvetica,sans-Serif" font-size="12.50" fill="white">services/fuzzer.py &#160;&#160;— &#160;&#160;fuzz_one() campaign loop</text>
</g>
<!-- cli&#45;&gt;fuzzer -->
<g id="edge1" class="edge">
<title>cli&#45;&gt;fuzzer</title>
<path fill="none" stroke="#3f4a58" stroke-width="1.8" d="M593.2,-939.88C641.31,-924.35 699.3,-905.62 742.43,-891.7"/>
<polygon fill="#3f4a58" stroke="#3f4a58" stroke-width="1.8" points="743.21,-893.95 748.95,-889.59 741.75,-889.42 743.21,-893.95"/>
</g>
<!-- profiler -->
<g id="node2" class="node">
<title>profiler</title>
<path fill="#e3e7ec" stroke="transparent" stroke-width="0" d="M592.5,-895C592.5,-895 379.5,-895 379.5,-895 373.5,-895 367.5,-889 367.5,-883 367.5,-883 367.5,-858 367.5,-858 367.5,-852 373.5,-846 379.5,-846 379.5,-846 592.5,-846 592.5,-846 598.5,-846 604.5,-852 604.5,-858 604.5,-858 604.5,-883 604.5,-883 604.5,-889 598.5,-895 592.5,-895"/>
<text text-anchor="start" x="379.5" y="-879" font-family="Helvetica,sans-Serif" font-size="10.00" fill="#242a31">core/target_profiler.py &#160;&#160;+ &#160;&#160;cfg · icfg · dwarf</text>
<text text-anchor="start" x="379.5" y="-868" font-family="Helvetica,sans-Serif" font-size="10.00" fill="#242a31">ELF strings · magic bytes · DIV constants</text>
<text text-anchor="start" x="379.5" y="-857" font-family="Helvetica,sans-Serif" font-size="10.00" fill="#242a31">call graph · CFG · DWARF line tables</text>
</g>
<!-- picker -->
<g id="node4" class="node">
<title>picker</title>
<path fill="#d8eade" stroke="transparent" stroke-width="0" d="M809.5,-779C809.5,-779 506.5,-779 506.5,-779 500.5,-779 494.5,-773 494.5,-767 494.5,-767 494.5,-731 494.5,-731 494.5,-725 500.5,-719 506.5,-719 506.5,-719 809.5,-719 809.5,-719 815.5,-719 821.5,-725 821.5,-731 821.5,-731 821.5,-767 821.5,-767 821.5,-773 815.5,-779 809.5,-779"/>
<text text-anchor="start" x="506.5" y="-763" font-family="Helvetica,sans-Serif" font-size="10.00" fill="#1f4433">services/seed_picker.py &#160;+ &#160;core/schedules.py</text>
<text text-anchor="start" x="506.5" y="-752" font-family="Helvetica,sans-Serif" font-size="10.00" fill="#1f4433">weights · Pareto front · crowding · saturation gate</text>
<text text-anchor="start" x="506.5" y="-741" font-family="Helvetica,sans-Serif" font-size="10.00" fill="#1f4433">FAST COE RARE MMOPT LIN QUAD GO AFLGO ENTROPIC KATZ</text>
<text text-anchor="start" x="506.5" y="-730" font-family="Helvetica,sans-Serif" font-size="10.00" fill="#1f4433">KRUSKAL&#45;COUNT (coupling walkers · recombination)</text>
</g>
<!-- profiler&#45;&gt;picker -->
<g id="edge8" class="edge">
<title>profiler&#45;&gt;picker</title>
<path fill="none" stroke="#68727e" stroke-width="1.1" stroke-dasharray="5,2" d="M519.98,-845.89C545.86,-827.91 581.82,-802.93 610.54,-782.97"/>
<polygon fill="#68727e" stroke="#68727e" stroke-width="1.1" points="611.96,-784.89 616.18,-779.05 609.24,-780.98 611.96,-784.89"/>
<text text-anchor="middle" x="626" y="-817.2" font-family="Helvetica,sans-Serif" font-size="8.50">distance · boundary markers &#160;</text>
</g>
<!-- ops -->
<g id="node7" class="node">
<title>ops</title>
<path fill="#c9cbe6" stroke="transparent" stroke-width="0" d="M768,-635.5C768,-635.5 548,-635.5 548,-635.5 542,-635.5 536,-629.5 536,-623.5 536,-623.5 536,-609.5 536,-609.5 536,-603.5 542,-597.5 548,-597.5 548,-597.5 768,-597.5 768,-597.5 774,-597.5 780,-603.5 780,-609.5 780,-609.5 780,-623.5 780,-623.5 780,-629.5 774,-635.5 768,-635.5"/>
<text text-anchor="start" x="548" y="-619.5" font-family="Helvetica,sans-Serif" font-size="10.00" fill="#2f3560">services/operators.py</text>
<text text-anchor="start" x="548" y="-608.5" font-family="Helvetica,sans-Serif" font-size="10.00" fill="#2f3560">dispatch · havoc (11 sub&#45;ops, adaptive draw)</text>
</g>
<!-- profiler&#45;&gt;ops -->
<g id="edge7" class="edge">
<title>profiler&#45;&gt;ops</title>
<path fill="none" stroke="#68727e" stroke-width="1.1" stroke-dasharray="5,2" d="M439.09,-845.96C424.47,-836.07 410.08,-823.08 402,-807 382.85,-768.87 376.79,-745.42 402,-711 429,-674.15 456.96,-695.3 500,-680 536.59,-666.99 577.33,-650.84 608.27,-638.21"/>
<polygon fill="#68727e" stroke="#68727e" stroke-width="1.1" points="609.33,-640.35 614.72,-635.57 607.52,-635.94 609.33,-640.35"/>
<text text-anchor="middle" x="441.5" y="-746.7" font-family="Helvetica,sans-Serif" font-size="8.50">dictionary tokens &#160;</text>
</g>
<!-- fuzzer&#45;&gt;picker -->
<g id="edge2" class="edge">
<title>fuzzer&#45;&gt;picker</title>
<path fill="none" stroke="#3f4a58" stroke-width="1.8" d="M782.67,-851.35C760.54,-833.35 726.1,-805.36 699.03,-783.35"/>
<polygon fill="#3f4a58" stroke="#3f4a58" stroke-width="1.8" points="700.49,-781.48 693.72,-779.03 697.49,-785.17 700.49,-781.48"/>
<text text-anchor="middle" x="771.5" y="-817.2" font-family="Helvetica,sans-Serif" font-size="8.50"> &#160;pick seed</text>
</g>
<!-- tarena -->
<g id="node6" class="node">
<title>tarena</title>
<path fill="#d8eade" stroke="transparent" stroke-width="0" d="M1183.5,-779C1183.5,-779 924.5,-779 924.5,-779 918.5,-779 912.5,-773 912.5,-767 912.5,-767 912.5,-731 912.5,-731 912.5,-725 918.5,-719 924.5,-719 924.5,-719 1183.5,-719 1183.5,-719 1189.5,-719 1195.5,-725 1195.5,-731 1195.5,-731 1195.5,-767 1195.5,-767 1195.5,-773 1189.5,-779 1183.5,-779"/>
<text text-anchor="start" x="924.5" y="-763" font-family="Helvetica,sans-Serif" font-size="10.00" fill="#1f4433">services/target_arena.py &#160;(multi&#45;target)</text>
<text text-anchor="start" x="924.5" y="-752" font-family="Helvetica,sans-Serif" font-size="10.00" fill="#1f4433">Elo over tgt_ arms: weighted round_robin wrr wfq phi</text>
<text text-anchor="start" x="924.5" y="-741" font-family="Helvetica,sans-Serif" font-size="10.00" fill="#1f4433">gale_shapley (core/stable_matching.py)</text>
<text text-anchor="start" x="924.5" y="-730" font-family="Helvetica,sans-Serif" font-size="10.00" fill="#1f4433">auction (core/assignment.py)</text>
</g>
<!-- fuzzer&#45;&gt;tarena -->
<g id="edge10" class="edge">
<title>fuzzer&#45;&gt;tarena</title>
<path fill="none" stroke="#68727e" stroke-width="1.1" d="M842.55,-851.48C880.77,-833.13 940.84,-804.31 987.21,-782.06"/>
<polygon fill="#68727e" stroke="#68727e" stroke-width="1.1" points="988.26,-784.19 993.37,-779.1 986.2,-779.9 988.26,-784.19"/>
<text text-anchor="middle" x="940" y="-817.2" font-family="Helvetica,sans-Serif" font-size="8.50"> &#160;pick target</text>
</g>
<!-- picker&#45;&gt;ops -->
<g id="edge3" class="edge">
<title>picker&#45;&gt;ops</title>
<path fill="none" stroke="#3f4a58" stroke-width="1.8" d="M658,-718.71C658,-695.89 658,-664.54 658,-642.8"/>
<polygon fill="#3f4a58" stroke="#3f4a58" stroke-width="1.8" points="660.38,-642.62 658,-635.82 655.62,-642.62 660.38,-642.62"/>
<text text-anchor="middle" x="692.5" y="-690.2" font-family="Helvetica,sans-Serif" font-size="8.50"> &#160;seed + energy</text>
</g>
<!-- bandit -->
<g id="node5" class="node">
<title>bandit</title>
<path fill="#d8eade" stroke="transparent" stroke-width="0" d="M1640.5,-773.5C1640.5,-773.5 1231.5,-773.5 1231.5,-773.5 1225.5,-773.5 1219.5,-767.5 1219.5,-761.5 1219.5,-761.5 1219.5,-736.5 1219.5,-736.5 1219.5,-730.5 1225.5,-724.5 1231.5,-724.5 1231.5,-724.5 1640.5,-724.5 1640.5,-724.5 1646.5,-724.5 1652.5,-730.5 1652.5,-736.5 1652.5,-736.5 1652.5,-761.5 1652.5,-761.5 1652.5,-767.5 1646.5,-773.5 1640.5,-773.5"/>
<text text-anchor="start" x="1231.5" y="-757.5" font-family="Helvetica,sans-Serif" font-size="10.00" fill="#1f4433">core/schedulers/ (16) &#160;+ &#160;elo · shapley</text>
<text text-anchor="start" x="1231.5" y="-746.5" font-family="Helvetica,sans-Serif" font-size="10.00" fill="#1f4433">monte_carlo mopt exp3 gp_ucb cmaes contextual</text>
<text text-anchor="start" x="1231.5" y="-735.5" font-family="Helvetica,sans-Serif" font-size="10.00" fill="#1f4433">ducb swucb kl_ducb kl_swucb cucb hierarchical replicator epsilon_greedy mcts katz</text>
</g>
<!-- bandit&#45;&gt;ops -->
<g id="edge9" class="edge">
<title>bandit&#45;&gt;ops</title>
<path fill="none" stroke="#68727e" stroke-width="1.1" d="M1295.32,-724.48C1266.47,-719.84 1236.27,-715.14 1208,-711 1160.55,-704.05 1148.39,-704.35 1101,-697 982.85,-678.68 847.67,-653.86 758.03,-636.85"/>
<polygon fill="#68727e" stroke="#68727e" stroke-width="1.1" points="758.25,-634.47 751.12,-635.54 757.36,-639.15 758.25,-634.47"/>
<text text-anchor="middle" x="1122.5" y="-690.2" font-family="Helvetica,sans-Serif" font-size="8.50"> &#160;operator</text>
</g>
<!-- tarena&#45;&gt;picker -->
<g id="edge11" class="edge">
<title>tarena&#45;&gt;picker</title>
<path fill="none" stroke="#68727e" stroke-width="1.1" stroke-dasharray="5,2" d="M912.4,-749C885.29,-749 856.64,-749 828.72,-749"/>
<polygon fill="#68727e" stroke="#68727e" stroke-width="1.1" points="828.44,-746.62 821.64,-749 828.44,-751.38 828.44,-746.62"/>
<text text-anchor="middle" x="867" y="-754.2" font-family="Helvetica,sans-Serif" font-size="8.50"> &#160;matched seed</text>
</g>
<!-- ops&#45;&gt;bandit -->
<g id="edge28" class="edge">
<title>ops&#45;&gt;bandit</title>
<path fill="none" stroke="#2f7d5a" stroke-width="1.1" stroke-dasharray="5,2" d="M780.16,-633.06C879.07,-646.16 1021.85,-666.21 1146,-688 1204.64,-698.29 1269.56,-711.55 1323.09,-722.98"/>
<polygon fill="#2f7d5a" stroke="#2f7d5a" stroke-width="1.1" points="1322.75,-725.34 1329.9,-724.44 1323.75,-720.69 1322.75,-725.34"/>
<text text-anchor="middle" x="1210.5" y="-690.2" font-family="Helvetica,sans-Serif" font-size="8.50" fill="#2f7d5a">reward &#160;</text>
</g>
<!-- runner -->
<g id="node9" class="node">
<title>runner</title>
<path fill="#f2dcdc" stroke="transparent" stroke-width="0" d="M744,-514C744,-514 572,-514 572,-514 566,-514 560,-508 560,-502 560,-502 560,-477 560,-477 560,-471 566,-465 572,-465 572,-465 744,-465 744,-465 750,-465 756,-471 756,-477 756,-477 756,-502 756,-502 756,-508 750,-514 744,-514"/>
<text text-anchor="start" x="572" y="-498" font-family="Helvetica,sans-Serif" font-size="10.00" fill="#5c3232">services/runner.py &#160;+ &#160;adapters/</text>
<text text-anchor="start" x="572" y="-487" font-family="Helvetica,sans-Serif" font-size="10.00" fill="#5c3232">forkserver · process · inprocess</text>
<text text-anchor="start" x="572" y="-476" font-family="Helvetica,sans-Serif" font-size="10.00" fill="#5c3232">persistent_signal · network · ptrace</text>
</g>
<!-- ops&#45;&gt;runner -->
<g id="edge4" class="edge">
<title>ops&#45;&gt;runner</title>
<path fill="none" stroke="#3f4a58" stroke-width="1.8" d="M658,-597.32C658,-577.36 658,-544.95 658,-521.06"/>
<polygon fill="#3f4a58" stroke="#3f4a58" stroke-width="1.8" points="660.38,-521.06 658,-514.26 655.62,-521.06 660.38,-521.06"/>
<text text-anchor="middle" x="676.5" y="-552.2" font-family="Helvetica,sans-Serif" font-size="8.50"> &#160;mutant</text>
</g>
<!-- lib -->
<g id="node8" class="node">
<title>lib</title>
<path fill="#dedff0" stroke="transparent" stroke-width="0" d="M476,-652C476,-652 104,-652 104,-652 98,-652 92,-646 92,-640 92,-640 92,-593 92,-593 92,-587 98,-581 104,-581 104,-581 476,-581 476,-581 482,-581 488,-587 488,-593 488,-593 488,-640 488,-640 488,-646 482,-652 476,-652"/>
<text text-anchor="start" x="104" y="-636" font-family="Helvetica,sans-Serif" font-size="10.00" fill="#2f3560">core/mutations/ (36 format ops) &#160;· &#160;core/operator_registry.py</text>
<text text-anchor="start" x="104" y="-625" font-family="Helvetica,sans-Serif" font-size="10.00" fill="#2f3560">png jpeg gif webp webm avif zip gzip zlib riff ogg flv asf mp3</text>
<text text-anchor="start" x="104" y="-614" font-family="Helvetica,sans-Serif" font-size="10.00" fill="#2f3560">adts mpegts nal isobmff pgs sqlite der elf protobuf x86 arm</text>
<text text-anchor="start" x="104" y="-603" font-family="Helvetica,sans-Serif" font-size="10.00" fill="#2f3560">grammar · format_fsm · tree_mutator · frameshift · markov · wfc · regularity</text>
<text text-anchor="start" x="104" y="-592" font-family="Helvetica,sans-Serif" font-size="10.00" fill="#2f3560">checksum_learner (Berlekamp&#45;Massey)</text>
</g>
<!-- lib&#45;&gt;ops -->
<g id="edge12" class="edge">
<title>lib&#45;&gt;ops</title>
<path fill="none" stroke="#68727e" stroke-width="1.1" stroke-dasharray="1,5" d="M488.02,-616.5C503.95,-616.5 519.89,-616.5 535.82,-616.5"/>
</g>
<!-- target -->
<g id="node11" class="node">
<title>target</title>
<polygon fill="#5c3232" stroke="transparent" stroke-width="0" points="540.5,-403 467.5,-403 467.5,-367 540.5,-367 540.5,-403"/>
<text text-anchor="middle" x="504" y="-382.5" font-family="Helvetica,sans-Serif" font-size="10.00" fill="white">TARGET</text>
</g>
<!-- runner&#45;&gt;target -->
<g id="edge5" class="edge">
<title>runner&#45;&gt;target</title>
<path fill="none" stroke="#68727e" stroke-width="1.5" d="M622.67,-464.98C596.36,-447.47 560.77,-423.78 535.44,-406.93"/>
<polygon fill="#68727e" stroke="#68727e" stroke-width="1.5" points="536.54,-404.8 529.56,-403.01 533.9,-408.76 536.54,-404.8"/>
</g>
<!-- shim -->
<g id="node10" class="node">
<title>shim</title>
<path fill="#e8c9c9" stroke="transparent" stroke-width="0" d="M524,-514C524,-514 350,-514 350,-514 344,-514 338,-508 338,-502 338,-502 338,-477 338,-477 338,-471 344,-465 350,-465 350,-465 524,-465 524,-465 530,-465 536,-471 536,-477 536,-477 536,-502 536,-502 536,-508 530,-514 524,-514"/>
<text text-anchor="start" x="350" y="-498" font-family="Helvetica,sans-Serif" font-size="10.00" fill="#5c3232">adapters/afl_shim.c</text>
<text text-anchor="start" x="350" y="-487" font-family="Helvetica,sans-Serif" font-size="10.00" fill="#5c3232">edge map · forkserver</text>
<text text-anchor="start" x="350" y="-476" font-family="Helvetica,sans-Serif" font-size="10.00" fill="#5c3232">cmplog interceptors (18 libc + 9 IR)</text>
</g>
<!-- shim&#45;&gt;target -->
<g id="edge13" class="edge">
<title>shim&#45;&gt;target</title>
<path fill="none" stroke="#68727e" stroke-width="1.1" stroke-dasharray="1,5" d="M452.37,-464.98C464.73,-446.07 481.81,-419.95 492.88,-403.01"/>
<text text-anchor="middle" x="499" y="-431.7" font-family="Helvetica,sans-Serif" font-size="8.50"> &#160;linked in</text>
</g>
<!-- cov -->
<g id="node12" class="node">
<title>cov</title>
<path fill="#c6dcea" stroke="transparent" stroke-width="0" d="M677,-294.5C677,-294.5 331,-294.5 331,-294.5 325,-294.5 319,-288.5 319,-282.5 319,-282.5 319,-257.5 319,-257.5 319,-251.5 325,-245.5 331,-245.5 331,-245.5 677,-245.5 677,-245.5 683,-245.5 689,-251.5 689,-257.5 689,-257.5 689,-282.5 689,-282.5 689,-288.5 683,-294.5 677,-294.5"/>
<text text-anchor="start" x="331" y="-278.5" font-family="Helvetica,sans-Serif" font-size="10.00" fill="#22475c">adapters/shm.py &#160;→ &#160;core/edge_tracker.py</text>
<text text-anchor="start" x="331" y="-267.5" font-family="Helvetica,sans-Serif" font-size="10.00" fill="#22475c">SHM bitmap · hit buckets · per&#45;edge max counts (PerfFuzz)</text>
<text text-anchor="start" x="331" y="-256.5" font-family="Helvetica,sans-Serif" font-size="10.00" fill="#22475c">edge_owner_count → rarity · Chao2 richness · Zipf/Heaps fit · first&#45;seen</text>
</g>
<!-- target&#45;&gt;cov -->
<g id="edge6" class="edge">
<title>target&#45;&gt;cov</title>
<path fill="none" stroke="#3f4a58" stroke-width="1.8" d="M504,-366.84C504,-349.53 504,-322.45 504,-301.48"/>
<polygon fill="#3f4a58" stroke="#3f4a58" stroke-width="1.8" points="506.38,-301.43 504,-294.63 501.62,-301.43 506.38,-301.43"/>
<text text-anchor="middle" x="522" y="-338.2" font-family="Helvetica,sans-Serif" font-size="8.50"> &#160;bitmap</text>
</g>
<!-- cmplog -->
<g id="node13" class="node">
<title>cmplog</title>
<path fill="#c6dcea" stroke="transparent" stroke-width="0" d="M283,-300C283,-300 119,-300 119,-300 113,-300 107,-294 107,-288 107,-288 107,-252 107,-252 107,-246 113,-240 119,-240 119,-240 283,-240 283,-240 289,-240 295,-246 295,-252 295,-252 295,-288 295,-288 295,-294 289,-300 283,-300"/>
<text text-anchor="start" x="119" y="-284" font-family="Helvetica,sans-Serif" font-size="10.00" fill="#22475c">core/cmplog.py</text>
<text text-anchor="start" x="119" y="-273" font-family="Helvetica,sans-Serif" font-size="10.00" fill="#22475c">pairs + tokens · fired/asserted</text>
<text text-anchor="start" x="119" y="-262" font-family="Helvetica,sans-Serif" font-size="10.00" fill="#22475c">per callback and per call site (PC)</text>
<text text-anchor="start" x="119" y="-251" font-family="Helvetica,sans-Serif" font-size="10.00" fill="#22475c">walls · progress reward</text>
</g>
<!-- target&#45;&gt;cmplog -->
<g id="edge14" class="edge">
<title>target&#45;&gt;cmplog</title>
<path fill="none" stroke="#68727e" stroke-width="1.1" d="M467.26,-376.07C427.09,-366.83 361.2,-349.98 307,-328 289.99,-321.1 272.17,-312.23 256.11,-303.55"/>
<polygon fill="#68727e" stroke="#68727e" stroke-width="1.1" points="256.92,-301.28 249.81,-300.1 254.63,-305.45 256.92,-301.28"/>
<text text-anchor="middle" x="382.5" y="-338.2" font-family="Helvetica,sans-Serif" font-size="8.50"> &#160;cmp channels</text>
</g>
<!-- crash -->
<g id="node17" class="node">
<title>crash</title>
<path fill="#f0dfcd" stroke="transparent" stroke-width="0" d="M1121,-294.5C1121,-294.5 875,-294.5 875,-294.5 869,-294.5 863,-288.5 863,-282.5 863,-282.5 863,-257.5 863,-257.5 863,-251.5 869,-245.5 875,-245.5 875,-245.5 1121,-245.5 1121,-245.5 1127,-245.5 1133,-251.5 1133,-257.5 1133,-257.5 1133,-282.5 1133,-282.5 1133,-288.5 1127,-294.5 1121,-294.5"/>
<text text-anchor="start" x="875" y="-278.5" font-family="Helvetica,sans-Serif" font-size="10.00" fill="#5c4227">core/sanitizer.py → crash_metadata.py</text>
<text text-anchor="start" x="875" y="-267.5" font-family="Helvetica,sans-Serif" font-size="10.00" fill="#5c4227">ASAN MSAN TSAN LSAN UBSAN · dedup · tiers</text>
<text text-anchor="start" x="875" y="-256.5" font-family="Helvetica,sans-Serif" font-size="10.00" fill="#5c4227">services/tmin · minimize · root_cause · differential</text>
</g>
<!-- target&#45;&gt;crash -->
<g id="edge15" class="edge">
<title>target&#45;&gt;crash</title>
<path fill="none" stroke="#68727e" stroke-width="1.1" d="M540.73,-375.6C613.33,-358.99 777.76,-321.38 888.34,-296.08"/>
<polygon fill="#68727e" stroke="#68727e" stroke-width="1.1" points="889.12,-298.35 895.21,-294.51 888.05,-293.71 889.12,-298.35"/>
<text text-anchor="middle" x="738.5" y="-338.2" font-family="Helvetica,sans-Serif" font-size="8.50"> &#160;signal / stderr</text>
</g>
<!-- cov&#45;&gt;picker -->
<g id="edge26" class="edge">
<title>cov&#45;&gt;picker</title>
<path fill="none" stroke="#2f7d5a" stroke-width="1.6" d="M559.98,-294.57C599.21,-310.43 653.16,-330.94 702,-345 731.65,-353.54 747.39,-338 770,-359 838.38,-422.51 758.81,-503.71 834,-559 984.49,-669.66 1124.04,-537 1234,-688 1236.35,-691.23 1236.77,-694.11 1234,-697 1221.18,-710.37 919.43,-709.21 901,-711 877.51,-713.28 852.83,-716.29 828.57,-719.63"/>
<polygon fill="#2f7d5a" stroke="#2f7d5a" stroke-width="1.6" points="828.15,-717.28 821.74,-720.58 828.8,-722 828.15,-717.28"/>
<text text-anchor="middle" x="848" y="-487.2" font-family="Helvetica,sans-Serif" font-size="8.50" fill="#2f7d5a">rarity · Chao2 &#160;</text>
</g>
<!-- infoth -->
<g id="node14" class="node">
<title>infoth</title>
<path fill="#d6e6f0" stroke="transparent" stroke-width="0" d="M450.5,-173C450.5,-173 201.5,-173 201.5,-173 195.5,-173 189.5,-167 189.5,-161 189.5,-161 189.5,-125 189.5,-125 189.5,-119 195.5,-113 201.5,-113 201.5,-113 450.5,-113 450.5,-113 456.5,-113 462.5,-119 462.5,-125 462.5,-125 462.5,-161 462.5,-161 462.5,-167 456.5,-173 450.5,-173"/>
<text text-anchor="start" x="201.5" y="-157" font-family="Helvetica,sans-Serif" font-size="10.00" fill="#22475c">mi · transfer_entropy · renyi · sensitivity</text>
<text text-anchor="start" x="201.5" y="-146" font-family="Helvetica,sans-Serif" font-size="10.00" fill="#22475c">structure_function · critical_slowing · running_stats</text>
<text text-anchor="start" x="201.5" y="-135" font-family="Helvetica,sans-Serif" font-size="10.00" fill="#22475c">perf_event (HW counters) · pll (lock vs stall)</text>
<text text-anchor="start" x="201.5" y="-124" font-family="Helvetica,sans-Serif" font-size="10.00" fill="#22475c">pool_drift (corpus vs seed bytes)</text>
</g>
<!-- cov&#45;&gt;infoth -->
<g id="edge16" class="edge">
<title>cov&#45;&gt;infoth</title>
<path fill="none" stroke="#68727e" stroke-width="1.1" stroke-dasharray="1,5" d="M470.52,-245.49C443.03,-226.18 403.76,-198.61 373.1,-177.07"/>
<polygon fill="#68727e" stroke="#68727e" stroke-width="1.1" points="374.41,-175.09 367.48,-173.13 371.67,-178.98 374.41,-175.09"/>
</g>
<!-- ledger -->
<g id="node15" class="node">
<title>ledger</title>
<path fill="#d6e6f0" stroke="transparent" stroke-width="0" d="M677,-167.5C677,-167.5 499,-167.5 499,-167.5 493,-167.5 487,-161.5 487,-155.5 487,-155.5 487,-130.5 487,-130.5 487,-124.5 493,-118.5 499,-118.5 499,-118.5 677,-118.5 677,-118.5 683,-118.5 689,-124.5 689,-130.5 689,-130.5 689,-155.5 689,-155.5 689,-161.5 683,-167.5 677,-167.5"/>
<text text-anchor="start" x="499" y="-151.5" font-family="Helvetica,sans-Serif" font-size="10.00" fill="#22475c">core/edge_ledger.py</text>
<text text-anchor="start" x="499" y="-140.5" font-family="Helvetica,sans-Serif" font-size="10.00" fill="#22475c">confirmed ids → families (id &gt;&gt; ctx)</text>
<text text-anchor="start" x="499" y="-129.5" font-family="Helvetica,sans-Serif" font-size="10.00" fill="#22475c">frontier · trust · tag occupancy</text>
</g>
<!-- cov&#45;&gt;ledger -->
<g id="edge17" class="edge">
<title>cov&#45;&gt;ledger</title>
<path fill="none" stroke="#68727e" stroke-width="1.1" stroke-dasharray="1,5" d="M501.8,-245.31C501.74,-233.76 503.23,-220.02 509,-209 516.65,-194.41 529.12,-181.86 541.92,-171.79"/>
<polygon fill="#68727e" stroke="#68727e" stroke-width="1.1" points="543.44,-173.63 547.42,-167.62 540.56,-169.83 543.44,-173.63"/>
</g>
<!-- corpus -->
<g id="node16" class="node">
<title>corpus</title>
<path fill="#e6dcee" stroke="transparent" stroke-width="0" d="M918.5,-173C918.5,-173 725.5,-173 725.5,-173 719.5,-173 713.5,-167 713.5,-161 713.5,-161 713.5,-125 713.5,-125 713.5,-119 719.5,-113 725.5,-113 725.5,-113 918.5,-113 918.5,-113 924.5,-113 930.5,-119 930.5,-125 930.5,-125 930.5,-161 930.5,-161 930.5,-167 924.5,-173 918.5,-173"/>
<text text-anchor="start" x="725.5" y="-157" font-family="Helvetica,sans-Serif" font-size="10.00" fill="#453454">services/corpus_manager.py</text>
<text text-anchor="start" x="725.5" y="-146" font-family="Helvetica,sans-Serif" font-size="10.00" fill="#453454">admission · prune · sync</text>
<text text-anchor="start" x="725.5" y="-135" font-family="Helvetica,sans-Serif" font-size="10.00" fill="#453454">ga · qea · rate_distortion · bloom dedup</text>
<text text-anchor="start" x="725.5" y="-124" font-family="Helvetica,sans-Serif" font-size="10.00" fill="#453454">state_store (resume) · parallel workers</text>
</g>
<!-- cov&#45;&gt;corpus -->
<g id="edge20" class="edge">
<title>cov&#45;&gt;corpus</title>
<path fill="none" stroke="#68727e" stroke-width="1.1" d="M582.53,-245.38C608.34,-237.2 637.05,-227.65 663,-218 681.1,-211.27 685.4,-208.95 703,-201 720.38,-193.15 739.05,-184.37 756.33,-176.11"/>
<polygon fill="#68727e" stroke="#68727e" stroke-width="1.1" points="757.52,-178.17 762.62,-173.09 755.46,-173.88 757.52,-178.17"/>
<text text-anchor="middle" x="718.5" y="-211.2" font-family="Helvetica,sans-Serif" font-size="8.50"> &#160;new coverage</text>
</g>
<!-- obs -->
<g id="node18" class="node">
<title>obs</title>
<path fill="#e3e7ec" stroke="transparent" stroke-width="0" d="M275.5,-54C275.5,-54 28.5,-54 28.5,-54 22.5,-54 16.5,-48 16.5,-42 16.5,-42 16.5,-28 16.5,-28 16.5,-22 22.5,-16 28.5,-16 28.5,-16 275.5,-16 275.5,-16 281.5,-16 287.5,-22 287.5,-28 287.5,-28 287.5,-42 287.5,-42 287.5,-48 281.5,-54 275.5,-54"/>
<text text-anchor="start" x="28.5" y="-38" font-family="Helvetica,sans-Serif" font-size="10.00" fill="#242a31">services/stats.py · stats_reporter.py · report.py</text>
<text text-anchor="start" x="28.5" y="-27" font-family="Helvetica,sans-Serif" font-size="10.00" fill="#242a31">live stat line · JSONL · &#45;&#45;report · Comparison Profile</text>
</g>
<!-- cov&#45;&gt;obs -->
<g id="edge23" class="edge">
<title>cov&#45;&gt;obs</title>
<path fill="none" stroke="#68727e" stroke-width="1.1" stroke-dasharray="5,2" d="M351.91,-245.42C272.79,-231.74 189.86,-214.58 177,-201 141.15,-163.13 143.35,-96.94 147.82,-60.98"/>
<polygon fill="#68727e" stroke="#68727e" stroke-width="1.1" points="150.18,-61.26 148.74,-54.21 145.47,-60.63 150.18,-61.26"/>
</g>
<!-- cmplog&#45;&gt;bandit -->
<g id="edge30" class="edge">
<title>cmplog&#45;&gt;bandit</title>
<path fill="none" stroke="#22688c" stroke-width="1.1" stroke-dasharray="5,2" d="M244.22,-300.08C262.74,-310.96 285.11,-322.1 307,-328 358.31,-341.84 492.98,-332.4 546,-336 558.48,-336.85 758.53,-354.01 770,-359 893.92,-412.88 878.74,-497.37 999,-559 1023.37,-571.49 1033.11,-564.08 1059,-573 1180.68,-614.94 1315.82,-683.39 1386.59,-721.05"/>
<polygon fill="#22688c" stroke="#22688c" stroke-width="1.1" points="1385.7,-723.27 1392.82,-724.37 1387.94,-719.07 1385.7,-723.27"/>
<text text-anchor="middle" x="995" y="-487.2" font-family="Helvetica,sans-Serif" font-size="8.50" fill="#22688c">walls / stall &#160;</text>
</g>
<!-- cmplog&#45;&gt;ops -->
<g id="edge29" class="edge">
<title>cmplog&#45;&gt;ops</title>
<path fill="none" stroke="#22688c" stroke-width="1.4" d="M243.93,-300.05C262.49,-311 284.98,-322.19 307,-328 345.36,-338.12 624.65,-330.96 664,-336 681.22,-338.21 684.84,-342.41 702,-345 725.01,-348.47 895.1,-342 911,-359 924.36,-373.28 917.57,-384.58 911,-403 906.75,-414.9 897.25,-413.1 893,-425 890.31,-432.53 888.1,-436.67 893,-443 916.89,-473.86 954.11,-434.14 978,-465 998.95,-492.06 999.32,-515.23 978,-542 953.87,-572.3 865.18,-591.14 787.28,-602.15"/>
<polygon fill="#22688c" stroke="#22688c" stroke-width="1.4" points="786.66,-599.84 780.25,-603.13 787.32,-604.55 786.66,-599.84"/>
<text text-anchor="start" x="893" y="-436.2" font-family="Helvetica,sans-Serif" font-size="8.50" fill="#22688c"> &#160;redqueen · colorize</text>
<text text-anchor="start" x="893" y="-427.2" font-family="Helvetica,sans-Serif" font-size="8.50" fill="#22688c"> &#160;SMT · magic bytes</text>
</g>
<!-- cmplog&#45;&gt;corpus -->
<g id="edge21" class="edge">
<title>cmplog&#45;&gt;corpus</title>
<path fill="none" stroke="#68727e" stroke-width="1.1" d="M295.27,-240C299.22,-239.1 303.14,-238.26 307,-237.5 432.34,-212.86 465.73,-219.97 593,-209 641.84,-204.79 655.63,-213.58 703,-201 724.38,-195.32 746.55,-185.82 765.89,-176.18"/>
<polygon fill="#68727e" stroke="#68727e" stroke-width="1.1" points="767.07,-178.25 772.06,-173.06 764.92,-174.01 767.07,-178.25"/>
<text text-anchor="middle" x="625" y="-211.2" font-family="Helvetica,sans-Serif" font-size="8.50"> &#160;cmp progress</text>
</g>
<!-- cmplog&#45;&gt;obs -->
<g id="edge24" class="edge">
<title>cmplog&#45;&gt;obs</title>
<path fill="none" stroke="#68727e" stroke-width="1.1" stroke-dasharray="5,2" d="M150.42,-239.92C143.39,-233.63 137.16,-226.32 133,-218 107.32,-166.64 127.37,-97.08 141.38,-60.62"/>
<polygon fill="#68727e" stroke="#68727e" stroke-width="1.1" points="143.63,-61.41 143.92,-54.21 139.2,-59.66 143.63,-61.41"/>
</g>
<!-- infoth&#45;&gt;obs -->
<g id="edge25" class="edge">
<title>infoth&#45;&gt;obs</title>
<path fill="none" stroke="#68727e" stroke-width="1.1" stroke-dasharray="5,2" d="M277.99,-112.75C249.4,-95.34 213.73,-73.61 187.65,-57.72"/>
<polygon fill="#68727e" stroke="#68727e" stroke-width="1.1" points="188.61,-55.52 181.57,-54.01 186.14,-59.58 188.61,-55.52"/>
</g>
<!-- ledger&#45;&gt;picker -->
<g id="edge18" class="edge">
<title>ledger&#45;&gt;picker</title>
<path fill="none" stroke="#2f7d5a" stroke-width="1.1" stroke-dasharray="5,2" d="M557.3,-167.66C541.19,-182.88 527.38,-202.62 541,-218 564.75,-244.82 672.52,-215.77 701,-237.5 742.04,-268.82 703.23,-314.66 745,-345 778.89,-369.62 896.2,-338.97 933,-359 1025.49,-409.33 988.1,-482.07 1060,-559 1132,-636.04 1326.07,-620.97 1253,-697 1239.44,-711.11 920.48,-709.14 901,-711 877.51,-713.25 852.83,-716.25 828.57,-719.58"/>
<polygon fill="#2f7d5a" stroke="#2f7d5a" stroke-width="1.1" points="828.14,-717.24 821.73,-720.53 828.8,-721.95 828.14,-717.24"/>
<text text-anchor="middle" x="1016.5" y="-431.7" font-family="Helvetica,sans-Serif" font-size="8.50">strata &#160;</text>
</g>
<!-- ledger&#45;&gt;bandit -->
<g id="edge19" class="edge">
<title>ledger&#45;&gt;bandit</title>
<path fill="none" stroke="#2f7d5a" stroke-width="1.1" stroke-dasharray="5,2" d="M573.89,-167.7C566.38,-183.72 560.92,-204.36 573,-218 596.9,-244.97 703.4,-218.45 734,-237.5 774.76,-262.87 761.27,-291.97 793,-328 800.71,-336.76 802.23,-340.51 813,-345 880.53,-373.14 909.45,-330.91 977,-359 1078.44,-401.18 1323.07,-636.67 1407.09,-719.32"/>
<polygon fill="#2f7d5a" stroke="#2f7d5a" stroke-width="1.1" points="1405.64,-721.23 1412.15,-724.31 1408.98,-717.84 1405.64,-721.23"/>
<text text-anchor="middle" x="1122" y="-431.7" font-family="Helvetica,sans-Serif" font-size="8.50">stratum &#160;</text>
</g>
<!-- corpus&#45;&gt;picker -->
<g id="edge27" class="edge">
<title>corpus&#45;&gt;picker</title>
<path fill="none" stroke="#7a5c99" stroke-width="1.4" d="M811.92,-173.25C798.88,-217.06 782.73,-299.43 827,-345 847.16,-365.75 1062.27,-343.99 1087,-359 1233.95,-448.18 1394.25,-573.2 1275,-697 1260.58,-711.97 921.7,-709.04 901,-711 877.51,-713.22 852.82,-716.21 828.56,-719.53"/>
<polygon fill="#7a5c99" stroke="#7a5c99" stroke-width="1.4" points="828.14,-717.18 821.73,-720.47 828.79,-721.9 828.14,-717.18"/>
<text text-anchor="middle" x="1223.5" y="-431.7" font-family="Helvetica,sans-Serif" font-size="8.50" fill="#7a5c99">queue &#160;</text>
</g>
<!-- crash&#45;&gt;corpus -->
<g id="edge22" class="edge">
<title>crash&#45;&gt;corpus</title>
<path fill="none" stroke="#68727e" stroke-width="1.1" stroke-dasharray="5,2" d="M964.9,-245.49C937.71,-226.18 898.89,-198.61 868.57,-177.07"/>
<polygon fill="#68727e" stroke="#68727e" stroke-width="1.1" points="869.93,-175.12 863.01,-173.13 867.18,-179 869.93,-175.12"/>
<text text-anchor="middle" x="950" y="-211.2" font-family="Helvetica,sans-Serif" font-size="8.50"> &#160;minimized</text>
</g>
</g>
</svg>
