<?xml version="1.0" encoding="UTF-8" standalone="no"?>
<!DOCTYPE svg PUBLIC "-//W3C//DTD SVG 1.1//EN"
 "http://www.w3.org/Graphics/SVG/1.1/DTD/svg11.dtd">
<!-- Generated by graphviz version 2.43.0 (0)
 -->
<!-- Title: fuzzer_tool Pages: 1 -->
<svg width="1107pt" height="1044pt"
 viewBox="0.00 0.00 1107.00 1044.00" xmlns="http://www.w3.org/2000/svg" xmlns:xlink="http://www.w3.org/1999/xlink">
<g id="graph0" class="graph" transform="scale(1 1) rotate(0) translate(4 1040)">
<title>fuzzer_tool</title>
<polygon fill="white" stroke="transparent" points="-4,4 -4,-1040 1103,-1040 1103,4 -4,4"/>
<g id="clust1" class="cluster">
<title>cluster_start</title>
<path fill="#f6f7f9" stroke="#c8ccd2" stroke-width="1.3" d="M486,-838C486,-838 716,-838 716,-838 722,-838 728,-844 728,-850 728,-850 728,-1016 728,-1016 728,-1022 722,-1028 716,-1028 716,-1028 486,-1028 486,-1028 480,-1028 474,-1022 474,-1016 474,-1016 474,-850 474,-850 474,-844 480,-838 486,-838"/>
<text text-anchor="middle" x="502" y="-1015.2" font-family="Helvetica Bold" font-size="11.00" fill="#3c4551">Startup</text>
</g>
<g id="clust2" class="cluster">
<title>cluster_sched</title>
<path fill="#f2f8f4" stroke="#bcd0c4" stroke-width="1.3" d="M304,-711C304,-711 1079,-711 1079,-711 1085,-711 1091,-717 1091,-723 1091,-723 1091,-795 1091,-795 1091,-801 1085,-807 1079,-807 1079,-807 304,-807 304,-807 298,-807 292,-801 292,-795 292,-795 292,-723 292,-723 292,-717 298,-711 304,-711"/>
<text text-anchor="middle" x="396" y="-794.2" font-family="Helvetica Bold" font-size="11.00" fill="#33604a">1 · Scheduling &#160;&#160;— &#160;&#160;what to fuzz next</text>
</g>
<g id="clust3" class="cluster">
<title>cluster_mut</title>
<path fill="#f4f4fa" stroke="#c3c6da" stroke-width="1.3" d="M20,-573C20,-573 634,-573 634,-573 640,-573 646,-579 646,-585 646,-585 646,-668 646,-668 646,-674 640,-680 634,-680 634,-680 20,-680 20,-680 14,-680 8,-674 8,-668 8,-668 8,-585 8,-585 8,-579 14,-573 20,-573"/>
<text text-anchor="middle" x="133.5" y="-667.2" font-family="Helvetica Bold" font-size="11.00" fill="#454a75">2 · Mutation &#160;&#160;— &#160;&#160;147 operators / 9 categories</text>
</g>
<g id="clust4" class="cluster">
<title>cluster_exec</title>
<path fill="#fbf4f4" stroke="#d9c2c2" stroke-width="1.3" d="M200,-359C200,-359 610,-359 610,-359 616,-359 622,-365 622,-371 622,-371 622,-530 622,-530 622,-536 616,-542 610,-542 610,-542 200,-542 200,-542 194,-542 188,-536 188,-530 188,-530 188,-371 188,-371 188,-365 194,-359 200,-359"/>
<text text-anchor="middle" x="230" y="-529.2" font-family="Helvetica Bold" font-size="11.00" fill="#7a4a4a">3 · Execution</text>
</g>
<g id="clust5" class="cluster">
<title>cluster_fb</title>
<path fill="#f2f7fa" stroke="#b9cbd8" stroke-width="1.3" d="M315,-110.5C315,-110.5 831,-110.5 831,-110.5 837,-110.5 843,-116.5 843,-122.5 843,-122.5 843,-316 843,-316 843,-322 837,-328 831,-328 831,-328 315,-328 315,-328 309,-328 303,-322 303,-316 303,-316 303,-122.5 303,-122.5 303,-116.5 309,-110.5 315,-110.5"/>
<text text-anchor="middle" x="400" y="-315.2" font-family="Helvetica Bold" font-size="11.00" fill="#37596e">4 · Feedback &#160;&#160;— &#160;&#160;what came back</text>
</g>
<g id="clust6" class="cluster">
<title>cluster_corpus</title>
<path fill="#f7f4fa" stroke="#cfc6d8" stroke-width="1.3" d="M73,-105C73,-105 283,-105 283,-105 289,-105 295,-111 295,-117 295,-117 295,-189 295,-189 295,-195 289,-201 283,-201 283,-201 73,-201 73,-201 67,-201 61,-195 61,-189 61,-189 61,-117 61,-117 61,-111 67,-105 73,-105"/>
<text text-anchor="middle" x="119" y="-188.2" font-family="Helvetica Bold" font-size="11.00" fill="#5a4a6b">5 · Corpus lifecycle</text>
</g>
<g id="clust7" class="cluster">
<title>cluster_crash</title>
<path fill="#fbf6f1" stroke="#d8c4b0" stroke-width="1.3" d="M21,-237.5C21,-237.5 283,-237.5 283,-237.5 289,-237.5 295,-243.5 295,-249.5 295,-249.5 295,-310.5 295,-310.5 295,-316.5 289,-322.5 283,-322.5 283,-322.5 21,-322.5 21,-322.5 15,-322.5 9,-316.5 9,-310.5 9,-310.5 9,-249.5 9,-249.5 9,-243.5 15,-237.5 21,-237.5"/>
<text text-anchor="middle" x="55" y="-309.7" font-family="Helvetica Bold" font-size="11.00" fill="#7a5638">Crash pipeline</text>
</g>
<g id="clust8" class="cluster">
<title>cluster_obs</title>
<path fill="#f6f7f9" stroke="#c8ccd2" stroke-width="1.3" d="M392,-8C392,-8 656,-8 656,-8 662,-8 668,-14 668,-20 668,-20 668,-70 668,-70 668,-76 662,-82 656,-82 656,-82 392,-82 392,-82 386,-82 380,-76 380,-70 380,-70 380,-20 380,-20 380,-14 386,-8 392,-8"/>
<text text-anchor="middle" x="423" y="-69.2" font-family="Helvetica Bold" font-size="11.00" fill="#3c4551">Observability</text>
</g>
<!-- cli -->
<g id="node1" class="node">
<title>cli</title>
<path fill="#e3e7ec" stroke="transparent" stroke-width="0" d="M708.5,-1000C708.5,-1000 527.5,-1000 527.5,-1000 521.5,-1000 515.5,-994 515.5,-988 515.5,-988 515.5,-952 515.5,-952 515.5,-946 521.5,-940 527.5,-940 527.5,-940 708.5,-940 708.5,-940 714.5,-940 720.5,-946 720.5,-952 720.5,-952 720.5,-988 720.5,-988 720.5,-994 714.5,-1000 708.5,-1000"/>
<text text-anchor="start" x="527.5" y="-984" font-family="Helvetica,sans-Serif" font-size="10.00" fill="#242a31">cli/commands.py</text>
<text text-anchor="start" x="527.5" y="-973" font-family="Helvetica,sans-Serif" font-size="10.00" fill="#242a31">fuzz · rank · minimize · sweep · tmin</text>
<text text-anchor="start" x="527.5" y="-962" font-family="Helvetica,sans-Serif" font-size="10.00" fill="#242a31">root&#45;cause · replay · verify · estimate</text>
<text text-anchor="start" x="527.5" y="-951" font-family="Helvetica,sans-Serif" font-size="10.00" fill="#242a31">import · ppmd</text>
</g>
<!-- fuzzer -->
<g id="node3" class="node">
<title>fuzzer</title>
<path fill="#3f4a58" stroke="transparent" stroke-width="0" d="M1084,-889.5C1084,-889.5 756,-889.5 756,-889.5 750,-889.5 744,-883.5 744,-877.5 744,-877.5 744,-863.5 744,-863.5 744,-857.5 750,-851.5 756,-851.5 756,-851.5 1084,-851.5 1084,-851.5 1090,-851.5 1096,-857.5 1096,-863.5 1096,-863.5 1096,-877.5 1096,-877.5 1096,-883.5 1090,-889.5 1084,-889.5"/>
<text text-anchor="middle" x="920" y="-867.5" font-family="Helvetica,sans-Serif" font-size="12.50" fill="white">services/fuzzer.py &#160;&#160;— &#160;&#160;fuzz_one() campaign loop</text>
</g>
<!-- cli&#45;&gt;fuzzer -->
<g id="edge1" class="edge">
<title>cli&#45;&gt;fuzzer</title>
<path fill="none" stroke="#3f4a58" stroke-width="1.8" d="M708.2,-939.88C756.31,-924.35 814.3,-905.62 857.43,-891.7"/>
<polygon fill="#3f4a58" stroke="#3f4a58" stroke-width="1.8" points="858.21,-893.95 863.95,-889.59 856.75,-889.42 858.21,-893.95"/>
</g>
<!-- profiler -->
<g id="node2" class="node">
<title>profiler</title>
<path fill="#e3e7ec" stroke="transparent" stroke-width="0" d="M707.5,-895C707.5,-895 494.5,-895 494.5,-895 488.5,-895 482.5,-889 482.5,-883 482.5,-883 482.5,-858 482.5,-858 482.5,-852 488.5,-846 494.5,-846 494.5,-846 707.5,-846 707.5,-846 713.5,-846 719.5,-852 719.5,-858 719.5,-858 719.5,-883 719.5,-883 719.5,-889 713.5,-895 707.5,-895"/>
<text text-anchor="start" x="494.5" y="-879" font-family="Helvetica,sans-Serif" font-size="10.00" fill="#242a31">core/target_profiler.py &#160;&#160;+ &#160;&#160;cfg · icfg · dwarf</text>
<text text-anchor="start" x="494.5" y="-868" font-family="Helvetica,sans-Serif" font-size="10.00" fill="#242a31">ELF strings · magic bytes · DIV constants</text>
<text text-anchor="start" x="494.5" y="-857" font-family="Helvetica,sans-Serif" font-size="10.00" fill="#242a31">call graph · CFG · DWARF line tables</text>
</g>
<!-- picker -->
<g id="node4" class="node">
<title>picker</title>
<path fill="#d8eade" stroke="transparent" stroke-width="0" d="M1071.5,-779C1071.5,-779 768.5,-779 768.5,-779 762.5,-779 756.5,-773 756.5,-767 756.5,-767 756.5,-731 756.5,-731 756.5,-725 762.5,-719 768.5,-719 768.5,-719 1071.5,-719 1071.5,-719 1077.5,-719 1083.5,-725 1083.5,-731 1083.5,-731 1083.5,-767 1083.5,-767 1083.5,-773 1077.5,-779 1071.5,-779"/>
<text text-anchor="start" x="768.5" y="-763" font-family="Helvetica,sans-Serif" font-size="10.00" fill="#1f4433">services/seed_picker.py &#160;+ &#160;core/schedules.py</text>
<text text-anchor="start" x="768.5" y="-752" font-family="Helvetica,sans-Serif" font-size="10.00" fill="#1f4433">weights · Pareto front · crowding · saturation gate</text>
<text text-anchor="start" x="768.5" y="-741" font-family="Helvetica,sans-Serif" font-size="10.00" fill="#1f4433">FAST COE RARE MMOPT LIN QUAD GO AFLGO ENTROPIC KATZ</text>
<text text-anchor="start" x="768.5" y="-730" font-family="Helvetica,sans-Serif" font-size="10.00" fill="#1f4433">KRUSKAL&#45;COUNT (coupling walkers · recombination)</text>
</g>
<!-- profiler&#45;&gt;picker -->
<g id="edge8" class="edge">
<title>profiler&#45;&gt;picker</title>
<path fill="none" stroke="#68727e" stroke-width="1.1" stroke-dasharray="5,2" d="M664.02,-845.89C713.23,-827.46 782.05,-801.68 835.95,-781.49"/>
<polygon fill="#68727e" stroke="#68727e" stroke-width="1.1" points="836.91,-783.67 842.44,-779.05 835.24,-779.21 836.91,-783.67"/>
<text text-anchor="middle" x="806" y="-817.2" font-family="Helvetica,sans-Serif" font-size="8.50">distance · boundary markers &#160;</text>
</g>
<!-- ops -->
<g id="node6" class="node">
<title>ops</title>
<path fill="#c9cbe6" stroke="transparent" stroke-width="0" d="M626,-635.5C626,-635.5 406,-635.5 406,-635.5 400,-635.5 394,-629.5 394,-623.5 394,-623.5 394,-609.5 394,-609.5 394,-603.5 400,-597.5 406,-597.5 406,-597.5 626,-597.5 626,-597.5 632,-597.5 638,-603.5 638,-609.5 638,-609.5 638,-623.5 638,-623.5 638,-629.5 632,-635.5 626,-635.5"/>
<text text-anchor="start" x="406" y="-619.5" font-family="Helvetica,sans-Serif" font-size="10.00" fill="#2f3560">services/operators.py</text>
<text text-anchor="start" x="406" y="-608.5" font-family="Helvetica,sans-Serif" font-size="10.00" fill="#2f3560">dispatch · havoc (11 sub&#45;ops, adaptive draw)</text>
</g>
<!-- profiler&#45;&gt;ops -->
<g id="edge7" class="edge">
<title>profiler&#45;&gt;ops</title>
<path fill="none" stroke="#68727e" stroke-width="1.1" stroke-dasharray="5,2" d="M482.18,-867.08C379.38,-862.17 241.91,-847.88 207,-807 179.29,-774.55 180.03,-744.06 207,-711 250.3,-657.91 292.34,-699.56 358,-680 396.4,-668.56 438.54,-651.66 469.63,-638.32"/>
<polygon fill="#68727e" stroke="#68727e" stroke-width="1.1" points="470.79,-640.41 476.09,-635.53 468.91,-636.04 470.79,-640.41"/>
<text text-anchor="middle" x="246.5" y="-746.7" font-family="Helvetica,sans-Serif" font-size="8.50">dictionary tokens &#160;</text>
</g>
<!-- fuzzer&#45;&gt;picker -->
<g id="edge2" class="edge">
<title>fuzzer&#45;&gt;picker</title>
<path fill="none" stroke="#3f4a58" stroke-width="1.8" d="M920,-851.35C920,-834.03 920,-807.45 920,-785.85"/>
<polygon fill="#3f4a58" stroke="#3f4a58" stroke-width="1.8" points="922.38,-785.83 920,-779.03 917.62,-785.83 922.38,-785.83"/>
<text text-anchor="middle" x="943.5" y="-817.2" font-family="Helvetica,sans-Serif" font-size="8.50"> &#160;pick seed</text>
</g>
<!-- picker&#45;&gt;ops -->
<g id="edge3" class="edge">
<title>picker&#45;&gt;ops</title>
<path fill="none" stroke="#3f4a58" stroke-width="1.8" d="M830.09,-718.96C753.66,-694.27 645.91,-659.46 578.55,-637.71"/>
<polygon fill="#3f4a58" stroke="#3f4a58" stroke-width="1.8" points="578.96,-635.34 571.76,-635.51 577.5,-639.87 578.96,-635.34"/>
<text text-anchor="middle" x="788.5" y="-690.2" font-family="Helvetica,sans-Serif" font-size="8.50"> &#160;seed + energy</text>
</g>
<!-- bandit -->
<g id="node5" class="node">
<title>bandit</title>
<path fill="#d8eade" stroke="transparent" stroke-width="0" d="M720.5,-773.5C720.5,-773.5 311.5,-773.5 311.5,-773.5 305.5,-773.5 299.5,-767.5 299.5,-761.5 299.5,-761.5 299.5,-736.5 299.5,-736.5 299.5,-730.5 305.5,-724.5 311.5,-724.5 311.5,-724.5 720.5,-724.5 720.5,-724.5 726.5,-724.5 732.5,-730.5 732.5,-736.5 732.5,-736.5 732.5,-761.5 732.5,-761.5 732.5,-767.5 726.5,-773.5 720.5,-773.5"/>
<text text-anchor="start" x="311.5" y="-757.5" font-family="Helvetica,sans-Serif" font-size="10.00" fill="#1f4433">core/schedulers/ (16) &#160;+ &#160;elo · shapley</text>
<text text-anchor="start" x="311.5" y="-746.5" font-family="Helvetica,sans-Serif" font-size="10.00" fill="#1f4433">monte_carlo mopt exp3 gp_ucb cmaes contextual</text>
<text text-anchor="start" x="311.5" y="-735.5" font-family="Helvetica,sans-Serif" font-size="10.00" fill="#1f4433">ducb swucb kl_ducb kl_swucb cucb hierarchical replicator epsilon_greedy mcts katz</text>
</g>
<!-- bandit&#45;&gt;ops -->
<g id="edge9" class="edge">
<title>bandit&#45;&gt;ops</title>
<path fill="none" stroke="#68727e" stroke-width="1.1" d="M516,-724.37C516,-701.2 516,-666.03 516,-642.43"/>
<polygon fill="#68727e" stroke="#68727e" stroke-width="1.1" points="518.38,-642.3 516,-635.5 513.62,-642.3 518.38,-642.3"/>
<text text-anchor="middle" x="537.5" y="-690.2" font-family="Helvetica,sans-Serif" font-size="8.50"> &#160;operator</text>
</g>
<!-- ops&#45;&gt;bandit -->
<g id="edge23" class="edge">
<title>ops&#45;&gt;bandit</title>
<path fill="none" stroke="#2f7d5a" stroke-width="1.1" stroke-dasharray="5,2" d="M533.22,-635.54C544.69,-648.87 558.76,-668.09 565,-688 568.56,-699.37 563.79,-710.06 556.02,-719.17"/>
<polygon fill="#2f7d5a" stroke="#2f7d5a" stroke-width="1.1" points="554.08,-717.77 551.15,-724.35 557.54,-721.04 554.08,-717.77"/>
<text text-anchor="middle" x="583.5" y="-690.2" font-family="Helvetica,sans-Serif" font-size="8.50" fill="#2f7d5a">reward &#160;</text>
</g>
<!-- runner -->
<g id="node8" class="node">
<title>runner</title>
<path fill="#f2dcdc" stroke="transparent" stroke-width="0" d="M602,-514C602,-514 430,-514 430,-514 424,-514 418,-508 418,-502 418,-502 418,-477 418,-477 418,-471 424,-465 430,-465 430,-465 602,-465 602,-465 608,-465 614,-471 614,-477 614,-477 614,-502 614,-502 614,-508 608,-514 602,-514"/>
<text text-anchor="start" x="430" y="-498" font-family="Helvetica,sans-Serif" font-size="10.00" fill="#5c3232">services/runner.py &#160;+ &#160;adapters/</text>
<text text-anchor="start" x="430" y="-487" font-family="Helvetica,sans-Serif" font-size="10.00" fill="#5c3232">forkserver · process · inprocess</text>
<text text-anchor="start" x="430" y="-476" font-family="Helvetica,sans-Serif" font-size="10.00" fill="#5c3232">persistent_signal · network · ptrace</text>
</g>
<!-- ops&#45;&gt;runner -->
<g id="edge4" class="edge">
<title>ops&#45;&gt;runner</title>
<path fill="none" stroke="#3f4a58" stroke-width="1.8" d="M516,-597.32C516,-577.36 516,-544.95 516,-521.06"/>
<polygon fill="#3f4a58" stroke="#3f4a58" stroke-width="1.8" points="518.38,-521.06 516,-514.26 513.62,-521.06 518.38,-521.06"/>
<text text-anchor="middle" x="534.5" y="-552.2" font-family="Helvetica,sans-Serif" font-size="8.50"> &#160;mutant</text>
</g>
<!-- lib -->
<g id="node7" class="node">
<title>lib</title>
<path fill="#dedff0" stroke="transparent" stroke-width="0" d="M334,-652C334,-652 28,-652 28,-652 22,-652 16,-646 16,-640 16,-640 16,-593 16,-593 16,-587 22,-581 28,-581 28,-581 334,-581 334,-581 340,-581 346,-587 346,-593 346,-593 346,-640 346,-640 346,-646 340,-652 334,-652"/>
<text text-anchor="start" x="28" y="-636" font-family="Helvetica,sans-Serif" font-size="10.00" fill="#2f3560">core/mutations/ (36 format ops) &#160;· &#160;core/operator_registry.py</text>
<text text-anchor="start" x="28" y="-625" font-family="Helvetica,sans-Serif" font-size="10.00" fill="#2f3560">png jpeg gif webp webm avif zip gzip zlib riff ogg flv asf mp3</text>
<text text-anchor="start" x="28" y="-614" font-family="Helvetica,sans-Serif" font-size="10.00" fill="#2f3560">adts mpegts nal isobmff pgs sqlite der elf protobuf x86 arm</text>
<text text-anchor="start" x="28" y="-603" font-family="Helvetica,sans-Serif" font-size="10.00" fill="#2f3560">grammar · tree_mutator · frameshift · markov · wfc · regularity</text>
<text text-anchor="start" x="28" y="-592" font-family="Helvetica,sans-Serif" font-size="10.00" fill="#2f3560">checksum_learner (Berlekamp&#45;Massey)</text>
</g>
<!-- lib&#45;&gt;ops -->
<g id="edge10" class="edge">
<title>lib&#45;&gt;ops</title>
<path fill="none" stroke="#68727e" stroke-width="1.1" stroke-dasharray="1,5" d="M346.21,-616.5C362.13,-616.5 378.05,-616.5 393.96,-616.5"/>
</g>
<!-- target -->
<g id="node10" class="node">
<title>target</title>
<polygon fill="#5c3232" stroke="transparent" stroke-width="0" points="441.5,-403 368.5,-403 368.5,-367 441.5,-367 441.5,-403"/>
<text text-anchor="middle" x="405" y="-382.5" font-family="Helvetica,sans-Serif" font-size="10.00" fill="white">TARGET</text>
</g>
<!-- runner&#45;&gt;target -->
<g id="edge5" class="edge">
<title>runner&#45;&gt;target</title>
<path fill="none" stroke="#68727e" stroke-width="1.5" d="M490.53,-464.98C471.97,-447.84 447,-424.78 428.83,-408"/>
<polygon fill="#68727e" stroke="#68727e" stroke-width="1.5" points="430.03,-405.88 423.42,-403.01 426.8,-409.37 430.03,-405.88"/>
</g>
<!-- shim -->
<g id="node9" class="node">
<title>shim</title>
<path fill="#e8c9c9" stroke="transparent" stroke-width="0" d="M382,-514C382,-514 208,-514 208,-514 202,-514 196,-508 196,-502 196,-502 196,-477 196,-477 196,-471 202,-465 208,-465 208,-465 382,-465 382,-465 388,-465 394,-471 394,-477 394,-477 394,-502 394,-502 394,-508 388,-514 382,-514"/>
<text text-anchor="start" x="208" y="-498" font-family="Helvetica,sans-Serif" font-size="10.00" fill="#5c3232">adapters/afl_shim.c</text>
<text text-anchor="start" x="208" y="-487" font-family="Helvetica,sans-Serif" font-size="10.00" fill="#5c3232">edge map · forkserver</text>
<text text-anchor="start" x="208" y="-476" font-family="Helvetica,sans-Serif" font-size="10.00" fill="#5c3232">cmplog interceptors (18 libc + 9 IR)</text>
</g>
<!-- shim&#45;&gt;target -->
<g id="edge11" class="edge">
<title>shim&#45;&gt;target</title>
<path fill="none" stroke="#68727e" stroke-width="1.1" stroke-dasharray="1,5" d="M320.24,-464.98C340.53,-446.07 368.57,-419.95 386.74,-403.01"/>
<text text-anchor="middle" x="384" y="-431.7" font-family="Helvetica,sans-Serif" font-size="8.50"> &#160;linked in</text>
</g>
<!-- cov -->
<g id="node11" class="node">
<title>cov</title>
<path fill="#c6dcea" stroke="transparent" stroke-width="0" d="M822.5,-294.5C822.5,-294.5 535.5,-294.5 535.5,-294.5 529.5,-294.5 523.5,-288.5 523.5,-282.5 523.5,-282.5 523.5,-257.5 523.5,-257.5 523.5,-251.5 529.5,-245.5 535.5,-245.5 535.5,-245.5 822.5,-245.5 822.5,-245.5 828.5,-245.5 834.5,-251.5 834.5,-257.5 834.5,-257.5 834.5,-282.5 834.5,-282.5 834.5,-288.5 828.5,-294.5 822.5,-294.5"/>
<text text-anchor="start" x="535.5" y="-278.5" font-family="Helvetica,sans-Serif" font-size="10.00" fill="#22475c">adapters/shm.py &#160;→ &#160;core/edge_tracker.py</text>
<text text-anchor="start" x="535.5" y="-267.5" font-family="Helvetica,sans-Serif" font-size="10.00" fill="#22475c">SHM bitmap · hit buckets · per&#45;edge max counts (PerfFuzz)</text>
<text text-anchor="start" x="535.5" y="-256.5" font-family="Helvetica,sans-Serif" font-size="10.00" fill="#22475c">edge_owner_count → rarity · Chao2 richness · first&#45;seen</text>
</g>
<!-- target&#45;&gt;cov -->
<g id="edge6" class="edge">
<title>target&#45;&gt;cov</title>
<path fill="none" stroke="#3f4a58" stroke-width="1.8" d="M441.67,-368.88C486.02,-350.59 561.42,-319.49 615.34,-297.25"/>
<polygon fill="#3f4a58" stroke="#3f4a58" stroke-width="1.8" points="616.43,-299.38 621.8,-294.59 614.61,-294.98 616.43,-299.38"/>
<text text-anchor="middle" x="535" y="-338.2" font-family="Helvetica,sans-Serif" font-size="8.50"> &#160;bitmap</text>
</g>
<!-- cmplog -->
<g id="node12" class="node">
<title>cmplog</title>
<path fill="#c6dcea" stroke="transparent" stroke-width="0" d="M487,-300C487,-300 323,-300 323,-300 317,-300 311,-294 311,-288 311,-288 311,-252 311,-252 311,-246 317,-240 323,-240 323,-240 487,-240 487,-240 493,-240 499,-246 499,-252 499,-252 499,-288 499,-288 499,-294 493,-300 487,-300"/>
<text text-anchor="start" x="323" y="-284" font-family="Helvetica,sans-Serif" font-size="10.00" fill="#22475c">core/cmplog.py</text>
<text text-anchor="start" x="323" y="-273" font-family="Helvetica,sans-Serif" font-size="10.00" fill="#22475c">pairs + tokens · fired/asserted</text>
<text text-anchor="start" x="323" y="-262" font-family="Helvetica,sans-Serif" font-size="10.00" fill="#22475c">per callback and per call site (PC)</text>
<text text-anchor="start" x="323" y="-251" font-family="Helvetica,sans-Serif" font-size="10.00" fill="#22475c">walls · progress reward</text>
</g>
<!-- target&#45;&gt;cmplog -->
<g id="edge12" class="edge">
<title>target&#45;&gt;cmplog</title>
<path fill="none" stroke="#68727e" stroke-width="1.1" d="M405,-366.84C405,-351.04 405,-327.1 405,-307.1"/>
<polygon fill="#68727e" stroke="#68727e" stroke-width="1.1" points="407.38,-307.01 405,-300.21 402.62,-307.01 407.38,-307.01"/>
<text text-anchor="middle" x="437.5" y="-338.2" font-family="Helvetica,sans-Serif" font-size="8.50"> &#160;cmp channels</text>
</g>
<!-- crash -->
<g id="node15" class="node">
<title>crash</title>
<path fill="#f0dfcd" stroke="transparent" stroke-width="0" d="M275,-294.5C275,-294.5 29,-294.5 29,-294.5 23,-294.5 17,-288.5 17,-282.5 17,-282.5 17,-257.5 17,-257.5 17,-251.5 23,-245.5 29,-245.5 29,-245.5 275,-245.5 275,-245.5 281,-245.5 287,-251.5 287,-257.5 287,-257.5 287,-282.5 287,-282.5 287,-288.5 281,-294.5 275,-294.5"/>
<text text-anchor="start" x="29" y="-278.5" font-family="Helvetica,sans-Serif" font-size="10.00" fill="#5c4227">core/sanitizer.py → crash_metadata.py</text>
<text text-anchor="start" x="29" y="-267.5" font-family="Helvetica,sans-Serif" font-size="10.00" fill="#5c4227">ASAN MSAN TSAN LSAN UBSAN · dedup · tiers</text>
<text text-anchor="start" x="29" y="-256.5" font-family="Helvetica,sans-Serif" font-size="10.00" fill="#5c4227">services/tmin · minimize · root_cause · differential</text>
</g>
<!-- target&#45;&gt;crash -->
<g id="edge13" class="edge">
<title>target&#45;&gt;crash</title>
<path fill="none" stroke="#68727e" stroke-width="1.1" d="M368.48,-367.69C327.36,-349.32 259.93,-319.21 211.25,-297.46"/>
<polygon fill="#68727e" stroke="#68727e" stroke-width="1.1" points="211.99,-295.19 204.81,-294.59 210.05,-299.53 211.99,-295.19"/>
<text text-anchor="middle" x="347.5" y="-338.2" font-family="Helvetica,sans-Serif" font-size="8.50"> &#160;signal / stderr</text>
</g>
<!-- cov&#45;&gt;picker -->
<g id="edge21" class="edge">
<title>cov&#45;&gt;picker</title>
<path fill="none" stroke="#2f7d5a" stroke-width="1.6" d="M694.7,-294.53C713.12,-323.69 742.61,-375.59 754,-425 755.8,-432.8 756.69,-435.47 754,-443 749.75,-454.9 741.46,-453.61 736,-465 719.3,-499.82 722.02,-511.59 718,-550 711.13,-615.64 695.31,-647.54 739,-697 745.03,-703.82 751.89,-709.77 759.34,-714.94"/>
<polygon fill="#2f7d5a" stroke="#2f7d5a" stroke-width="1.6" points="758.15,-717 765.14,-718.75 760.76,-713.02 758.15,-717"/>
<text text-anchor="middle" x="769" y="-487.2" font-family="Helvetica,sans-Serif" font-size="8.50" fill="#2f7d5a">rarity · Chao2 &#160;</text>
</g>
<!-- infoth -->
<g id="node13" class="node">
<title>infoth</title>
<path fill="#d6e6f0" stroke="transparent" stroke-width="0" d="M822.5,-167.5C822.5,-167.5 573.5,-167.5 573.5,-167.5 567.5,-167.5 561.5,-161.5 561.5,-155.5 561.5,-155.5 561.5,-130.5 561.5,-130.5 561.5,-124.5 567.5,-118.5 573.5,-118.5 573.5,-118.5 822.5,-118.5 822.5,-118.5 828.5,-118.5 834.5,-124.5 834.5,-130.5 834.5,-130.5 834.5,-155.5 834.5,-155.5 834.5,-161.5 828.5,-167.5 822.5,-167.5"/>
<text text-anchor="start" x="573.5" y="-151.5" font-family="Helvetica,sans-Serif" font-size="10.00" fill="#22475c">mi · transfer_entropy · renyi · sensitivity</text>
<text text-anchor="start" x="573.5" y="-140.5" font-family="Helvetica,sans-Serif" font-size="10.00" fill="#22475c">structure_function · critical_slowing · running_stats</text>
<text text-anchor="start" x="573.5" y="-129.5" font-family="Helvetica,sans-Serif" font-size="10.00" fill="#22475c">perf_event (HW counters)</text>
</g>
<!-- cov&#45;&gt;infoth -->
<g id="edge14" class="edge">
<title>cov&#45;&gt;infoth</title>
<path fill="none" stroke="#68727e" stroke-width="1.1" stroke-dasharray="1,5" d="M682.57,-245.49C685.62,-225.45 690.02,-196.51 693.34,-174.66"/>
<polygon fill="#68727e" stroke="#68727e" stroke-width="1.1" points="695.71,-174.91 694.38,-167.83 691,-174.2 695.71,-174.91"/>
</g>
<!-- corpus -->
<g id="node14" class="node">
<title>corpus</title>
<path fill="#e6dcee" stroke="transparent" stroke-width="0" d="M274.5,-173C274.5,-173 81.5,-173 81.5,-173 75.5,-173 69.5,-167 69.5,-161 69.5,-161 69.5,-125 69.5,-125 69.5,-119 75.5,-113 81.5,-113 81.5,-113 274.5,-113 274.5,-113 280.5,-113 286.5,-119 286.5,-125 286.5,-125 286.5,-161 286.5,-161 286.5,-167 280.5,-173 274.5,-173"/>
<text text-anchor="start" x="81.5" y="-157" font-family="Helvetica,sans-Serif" font-size="10.00" fill="#453454">services/corpus_manager.py</text>
<text text-anchor="start" x="81.5" y="-146" font-family="Helvetica,sans-Serif" font-size="10.00" fill="#453454">admission · prune · sync</text>
<text text-anchor="start" x="81.5" y="-135" font-family="Helvetica,sans-Serif" font-size="10.00" fill="#453454">ga · qea · rate_distortion · bloom dedup</text>
<text text-anchor="start" x="81.5" y="-124" font-family="Helvetica,sans-Serif" font-size="10.00" fill="#453454">state_store (resume) · parallel workers</text>
</g>
<!-- cov&#45;&gt;corpus -->
<g id="edge15" class="edge">
<title>cov&#45;&gt;corpus</title>
<path fill="none" stroke="#68727e" stroke-width="1.1" d="M575.68,-245.45C518.55,-233.12 446.13,-218.63 381,-209 343.9,-203.51 333.14,-211.03 297,-201 275.89,-195.14 253.94,-185.7 234.73,-176.18"/>
<polygon fill="#68727e" stroke="#68727e" stroke-width="1.1" points="235.73,-174.02 228.59,-173.08 233.59,-178.27 235.73,-174.02"/>
<text text-anchor="middle" x="463.5" y="-211.2" font-family="Helvetica,sans-Serif" font-size="8.50"> &#160;new coverage</text>
</g>
<!-- obs -->
<g id="node16" class="node">
<title>obs</title>
<path fill="#e3e7ec" stroke="transparent" stroke-width="0" d="M647.5,-54C647.5,-54 400.5,-54 400.5,-54 394.5,-54 388.5,-48 388.5,-42 388.5,-42 388.5,-28 388.5,-28 388.5,-22 394.5,-16 400.5,-16 400.5,-16 647.5,-16 647.5,-16 653.5,-16 659.5,-22 659.5,-28 659.5,-28 659.5,-42 659.5,-42 659.5,-48 653.5,-54 647.5,-54"/>
<text text-anchor="start" x="400.5" y="-38" font-family="Helvetica,sans-Serif" font-size="10.00" fill="#242a31">services/stats.py · stats_reporter.py · report.py</text>
<text text-anchor="start" x="400.5" y="-27" font-family="Helvetica,sans-Serif" font-size="10.00" fill="#242a31">live stat line · JSONL · &#45;&#45;report · Comparison Profile</text>
</g>
<!-- cov&#45;&gt;obs -->
<g id="edge18" class="edge">
<title>cov&#45;&gt;obs</title>
<path fill="none" stroke="#68727e" stroke-width="1.1" stroke-dasharray="5,2" d="M606.71,-245.35C585.37,-234.97 563.99,-220.56 550,-201 519.99,-159.05 519.13,-95.75 521.4,-61.01"/>
<polygon fill="#68727e" stroke="#68727e" stroke-width="1.1" points="523.79,-61.01 521.92,-54.05 519.04,-60.66 523.79,-61.01"/>
</g>
<!-- cmplog&#45;&gt;bandit -->
<g id="edge25" class="edge">
<title>cmplog&#45;&gt;bandit</title>
<path fill="none" stroke="#22688c" stroke-width="1.1" stroke-dasharray="5,2" d="M449.55,-300.12C468.12,-310.79 490.36,-321.77 512,-328 559.96,-341.81 575.6,-323.85 624,-336 717.97,-359.59 770.3,-343.7 823,-425 851.52,-468.99 845.77,-505.64 808,-542 796.56,-553.01 750.52,-541.67 737,-550 678.22,-586.2 703.55,-634.08 652,-680 632.9,-697.01 608.78,-710.89 586.17,-721.56"/>
<polygon fill="#22688c" stroke="#22688c" stroke-width="1.1" points="585.01,-719.48 579.84,-724.49 587.01,-723.8 585.01,-719.48"/>
<text text-anchor="middle" x="867" y="-487.2" font-family="Helvetica,sans-Serif" font-size="8.50" fill="#22688c">walls / stall &#160;</text>
</g>
<!-- cmplog&#45;&gt;ops -->
<g id="edge24" class="edge">
<title>cmplog&#45;&gt;ops</title>
<path fill="none" stroke="#22688c" stroke-width="1.4" d="M451.73,-300.09C469.95,-310.3 491.38,-320.96 512,-328 562.5,-345.24 596.8,-315.71 628,-359 675.56,-424.98 666.64,-470.43 628,-542 615.43,-565.29 591.9,-582.4 569.64,-594.22"/>
<polygon fill="#22688c" stroke="#22688c" stroke-width="1.4" points="568.37,-592.19 563.41,-597.41 570.55,-596.43 568.37,-592.19"/>
<text text-anchor="start" x="660" y="-436.2" font-family="Helvetica,sans-Serif" font-size="8.50" fill="#22688c"> &#160;redqueen · colorize</text>
<text text-anchor="start" x="660" y="-427.2" font-family="Helvetica,sans-Serif" font-size="8.50" fill="#22688c"> &#160;SMT · magic bytes</text>
</g>
<!-- cmplog&#45;&gt;corpus -->
<g id="edge16" class="edge">
<title>cmplog&#45;&gt;corpus</title>
<path fill="none" stroke="#68727e" stroke-width="1.1" d="M352.07,-239.85C317.64,-220.89 272.69,-196.14 237.1,-176.54"/>
<polygon fill="#68727e" stroke="#68727e" stroke-width="1.1" points="238.12,-174.39 231.02,-173.2 235.83,-178.56 238.12,-174.39"/>
<text text-anchor="middle" x="343" y="-211.2" font-family="Helvetica,sans-Serif" font-size="8.50"> &#160;cmp progress</text>
</g>
<!-- cmplog&#45;&gt;obs -->
<g id="edge19" class="edge">
<title>cmplog&#45;&gt;obs</title>
<path fill="none" stroke="#68727e" stroke-width="1.1" stroke-dasharray="5,2" d="M406.92,-239.7C408.22,-229.73 410.39,-218.67 414,-209 435.7,-150.93 478.78,-91.81 504.11,-59.93"/>
<polygon fill="#68727e" stroke="#68727e" stroke-width="1.1" points="506.23,-61.1 508.63,-54.31 502.52,-58.12 506.23,-61.1"/>
</g>
<!-- infoth&#45;&gt;obs -->
<g id="edge20" class="edge">
<title>infoth&#45;&gt;obs</title>
<path fill="none" stroke="#68727e" stroke-width="1.1" stroke-dasharray="5,2" d="M659.38,-118.48C629.57,-100.31 588.63,-75.37 559.6,-57.69"/>
<polygon fill="#68727e" stroke="#68727e" stroke-width="1.1" points="560.64,-55.53 553.59,-54.03 558.16,-59.6 560.64,-55.53"/>
</g>
<!-- corpus&#45;&gt;picker -->
<g id="edge22" class="edge">
<title>corpus&#45;&gt;picker</title>
<path fill="none" stroke="#7a5c99" stroke-width="1.4" d="M226.32,-173C247.28,-184.01 272.58,-195.27 297,-201 311.93,-204.5 837.22,-199.19 849,-209 895.45,-247.68 935.73,-445.32 900,-542 869.32,-625.01 723.85,-624.78 775,-697 779.82,-703.8 785.62,-709.71 792.1,-714.83"/>
<polygon fill="#7a5c99" stroke="#7a5c99" stroke-width="1.4" points="790.8,-716.83 797.69,-718.95 793.63,-713 790.8,-716.83"/>
<text text-anchor="middle" x="929.5" y="-431.7" font-family="Helvetica,sans-Serif" font-size="8.50" fill="#7a5c99">queue &#160;</text>
</g>
<!-- crash&#45;&gt;corpus -->
<g id="edge17" class="edge">
<title>crash&#45;&gt;corpus</title>
<path fill="none" stroke="#68727e" stroke-width="1.1" stroke-dasharray="5,2" d="M156.89,-245.49C160.74,-226.98 166.17,-200.88 170.56,-179.79"/>
<polygon fill="#68727e" stroke="#68727e" stroke-width="1.1" points="172.89,-180.27 171.94,-173.13 168.23,-179.3 172.89,-180.27"/>
<text text-anchor="middle" x="190" y="-211.2" font-family="Helvetica,sans-Serif" font-size="8.50"> &#160;minimized</text>
</g>
</g>
</svg>
