<?xml version="1.0" encoding="UTF-8" standalone="no"?>
<!DOCTYPE svg PUBLIC "-//W3C//DTD SVG 1.1//EN"
 "http://www.w3.org/Graphics/SVG/1.1/DTD/svg11.dtd">
<!-- Generated by graphviz version 2.43.0 (0)
 -->
<!-- Title: fuzzer_tool Pages: 1 -->
<svg width="1700pt" height="1047pt"
 viewBox="0.00 0.00 1700.00 1047.00" xmlns="http://www.w3.org/2000/svg" xmlns:xlink="http://www.w3.org/1999/xlink">
<g id="graph0" class="graph" transform="scale(1 1) rotate(0) translate(4 1043)">
<title>fuzzer_tool</title>
<polygon fill="white" stroke="transparent" points="-4,4 -4,-1043 1696,-1043 1696,4 -4,4"/>
<g id="clust1" class="cluster">
<title>cluster_start</title>
<path fill="#f6f7f9" stroke="#c8ccd2" stroke-width="1.3" d="M354,-839.5C354,-839.5 584,-839.5 584,-839.5 590,-839.5 596,-845.5 596,-851.5 596,-851.5 596,-1019 596,-1019 596,-1025 590,-1031 584,-1031 584,-1031 354,-1031 354,-1031 348,-1031 342,-1025 342,-1019 342,-1019 342,-851.5 342,-851.5 342,-845.5 348,-839.5 354,-839.5"/>
<text text-anchor="middle" x="370" y="-1018.2" font-family="Helvetica Bold" font-size="11.00" fill="#3c4551">Startup</text>
</g>
<g id="clust2" class="cluster">
<title>cluster_sched</title>
<path fill="#f2f8f4" stroke="#bcd0c4" stroke-width="1.3" d="M474,-711C474,-711 1672,-711 1672,-711 1678,-711 1684,-717 1684,-723 1684,-723 1684,-795 1684,-795 1684,-801 1678,-807 1672,-807 1672,-807 474,-807 474,-807 468,-807 462,-801 462,-795 462,-795 462,-723 462,-723 462,-717 468,-711 474,-711"/>
<text text-anchor="middle" x="566.5" y="-794.2" font-family="Helvetica Bold" font-size="11.00" fill="#33604a">1 · Scheduling &#160;&#160;— &#160;&#160;what to fuzz next</text>
</g>
<g id="clust3" class="cluster">
<title>cluster_mut</title>
<path fill="#f4f4fa" stroke="#c3c6da" stroke-width="1.3" d="M96,-573C96,-573 776,-573 776,-573 782,-573 788,-579 788,-585 788,-585 788,-668 788,-668 788,-674 782,-680 776,-680 776,-680 96,-680 96,-680 90,-680 84,-674 84,-668 84,-668 84,-585 84,-585 84,-579 90,-573 96,-573"/>
<text text-anchor="middle" x="210" y="-667.2" font-family="Helvetica Bold" font-size="11.00" fill="#454a75">2 · Mutation &#160;&#160;— &#160;&#160;147 operators / 9 categories</text>
</g>
<g id="clust4" class="cluster">
<title>cluster_exec</title>
<path fill="#fbf4f4" stroke="#d9c2c2" stroke-width="1.3" d="M342,-359C342,-359 752,-359 752,-359 758,-359 764,-365 764,-371 764,-371 764,-530 764,-530 764,-536 758,-542 752,-542 752,-542 342,-542 342,-542 336,-542 330,-536 330,-530 330,-530 330,-371 330,-371 330,-365 336,-359 342,-359"/>
<text text-anchor="middle" x="372.5" y="-529.2" font-family="Helvetica Bold" font-size="11.00" fill="#7a4a4a">3 · Execution</text>
</g>
<g id="clust5" class="cluster">
<title>cluster_fb</title>
<path fill="#f2f7fa" stroke="#b9cbd8" stroke-width="1.3" d="M111,-105C111,-105 685,-105 685,-105 691,-105 697,-111 697,-117 697,-117 697,-316 697,-316 697,-322 691,-328 685,-328 685,-328 111,-328 111,-328 105,-328 99,-322 99,-316 99,-316 99,-117 99,-117 99,-111 105,-105 111,-105"/>
<text text-anchor="middle" x="196.5" y="-315.2" font-family="Helvetica Bold" font-size="11.00" fill="#37596e">4 · Feedback &#160;&#160;— &#160;&#160;what came back</text>
</g>
<g id="clust6" class="cluster">
<title>cluster_corpus</title>
<path fill="#f7f4fa" stroke="#cfc6d8" stroke-width="1.3" d="M717,-105C717,-105 927,-105 927,-105 933,-105 939,-111 939,-117 939,-117 939,-189 939,-189 939,-195 933,-201 927,-201 927,-201 717,-201 717,-201 711,-201 705,-195 705,-189 705,-189 705,-117 705,-117 705,-111 711,-105 717,-105"/>
<text text-anchor="middle" x="763.5" y="-188.2" font-family="Helvetica Bold" font-size="11.00" fill="#5a4a6b">5 · Corpus lifecycle</text>
</g>
<g id="clust7" class="cluster">
<title>cluster_crash</title>
<path fill="#fbf6f1" stroke="#d8c4b0" stroke-width="1.3" d="M867,-232C867,-232 1129,-232 1129,-232 1135,-232 1141,-238 1141,-244 1141,-244 1141,-316 1141,-316 1141,-322 1135,-328 1129,-328 1129,-328 867,-328 867,-328 861,-328 855,-322 855,-316 855,-316 855,-244 855,-244 855,-238 861,-232 867,-232"/>
<text text-anchor="middle" x="901" y="-315.2" font-family="Helvetica Bold" font-size="11.00" fill="#7a5638">Crash pipeline</text>
</g>
<g id="clust8" class="cluster">
<title>cluster_obs</title>
<path fill="#f6f7f9" stroke="#c8ccd2" stroke-width="1.3" d="M20,-8C20,-8 284,-8 284,-8 290,-8 296,-14 296,-20 296,-20 296,-70 296,-70 296,-76 290,-82 284,-82 284,-82 20,-82 20,-82 14,-82 8,-76 8,-70 8,-70 8,-20 8,-20 8,-14 14,-8 20,-8"/>
<text text-anchor="middle" x="51" y="-69.2" font-family="Helvetica Bold" font-size="11.00" fill="#3c4551">Observability</text>
</g>
<!-- cli -->
<g id="node1" class="node">
<title>cli</title>
<path fill="#e3e7ec" stroke="transparent" stroke-width="0" d="M576.5,-1003C576.5,-1003 395.5,-1003 395.5,-1003 389.5,-1003 383.5,-997 383.5,-991 383.5,-991 383.5,-955 383.5,-955 383.5,-949 389.5,-943 395.5,-943 395.5,-943 576.5,-943 576.5,-943 582.5,-943 588.5,-949 588.5,-955 588.5,-955 588.5,-991 588.5,-991 588.5,-997 582.5,-1003 576.5,-1003"/>
<text text-anchor="start" x="395.5" y="-987" font-family="Helvetica,sans-Serif" font-size="10.00" fill="#242a31">cli/commands.py</text>
<text text-anchor="start" x="395.5" y="-976" font-family="Helvetica,sans-Serif" font-size="10.00" fill="#242a31">fuzz · rank · minimize · sweep · tmin</text>
<text text-anchor="start" x="395.5" y="-965" font-family="Helvetica,sans-Serif" font-size="10.00" fill="#242a31">root&#45;cause · replay · verify · estimate</text>
<text text-anchor="start" x="395.5" y="-954" font-family="Helvetica,sans-Serif" font-size="10.00" fill="#242a31">import · ppmd</text>
</g>
<!-- fuzzer -->
<g id="node3" class="node">
<title>fuzzer</title>
<path fill="#3f4a58" stroke="transparent" stroke-width="0" d="M1004,-898C1004,-898 624,-898 624,-898 618,-898 612,-892 612,-886 612,-886 612,-858 612,-858 612,-852 618,-846 624,-846 624,-846 1004,-846 1004,-846 1010,-846 1016,-852 1016,-858 1016,-858 1016,-886 1016,-886 1016,-892 1010,-898 1004,-898"/>
<text text-anchor="middle" x="814" y="-876" font-family="Helvetica,sans-Serif" font-size="12.50" fill="white">services/fuzzer.py &#160;&#160;— &#160;&#160;fuzz_one() campaign loop</text>
<text text-anchor="middle" x="814" y="-862" font-family="Helvetica,sans-Serif" font-size="12.50" fill="white">services/fuzz_round.py &#160;&#160;— &#160;&#160;FuzzRound: one per iteration</text>
</g>
<!-- cli&#45;&gt;fuzzer -->
<g id="edge1" class="edge">
<title>cli&#45;&gt;fuzzer</title>
<path fill="none" stroke="#3f4a58" stroke-width="1.8" d="M582.19,-942.97C627.14,-929.4 680.34,-913.34 724.43,-900.03"/>
<polygon fill="#3f4a58" stroke="#3f4a58" stroke-width="1.8" points="725.33,-902.25 731.15,-898.01 723.95,-897.69 725.33,-902.25"/>
</g>
<!-- profiler -->
<g id="node2" class="node">
<title>profiler</title>
<path fill="#e3e7ec" stroke="transparent" stroke-width="0" d="M575.5,-896.5C575.5,-896.5 362.5,-896.5 362.5,-896.5 356.5,-896.5 350.5,-890.5 350.5,-884.5 350.5,-884.5 350.5,-859.5 350.5,-859.5 350.5,-853.5 356.5,-847.5 362.5,-847.5 362.5,-847.5 575.5,-847.5 575.5,-847.5 581.5,-847.5 587.5,-853.5 587.5,-859.5 587.5,-859.5 587.5,-884.5 587.5,-884.5 587.5,-890.5 581.5,-896.5 575.5,-896.5"/>
<text text-anchor="start" x="362.5" y="-880.5" font-family="Helvetica,sans-Serif" font-size="10.00" fill="#242a31">core/target_profiler.py &#160;&#160;+ &#160;&#160;cfg · icfg · dwarf</text>
<text text-anchor="start" x="362.5" y="-869.5" font-family="Helvetica,sans-Serif" font-size="10.00" fill="#242a31">ELF strings · magic bytes · DIV constants</text>
<text text-anchor="start" x="362.5" y="-858.5" font-family="Helvetica,sans-Serif" font-size="10.00" fill="#242a31">call graph · CFG · DWARF line tables</text>
</g>
<!-- picker -->
<g id="node4" class="node">
<title>picker</title>
<path fill="#d8eade" stroke="transparent" stroke-width="0" d="M833.5,-779C833.5,-779 482.5,-779 482.5,-779 476.5,-779 470.5,-773 470.5,-767 470.5,-767 470.5,-731 470.5,-731 470.5,-725 476.5,-719 482.5,-719 482.5,-719 833.5,-719 833.5,-719 839.5,-719 845.5,-725 845.5,-731 845.5,-731 845.5,-767 845.5,-767 845.5,-773 839.5,-779 833.5,-779"/>
<text text-anchor="start" x="482.5" y="-763" font-family="Helvetica,sans-Serif" font-size="10.00" fill="#1f4433">services/seed_picker.py &#160;+ &#160;core/schedules.py</text>
<text text-anchor="start" x="482.5" y="-752" font-family="Helvetica,sans-Serif" font-size="10.00" fill="#1f4433">weights · Pareto front · crowding · saturation gate</text>
<text text-anchor="start" x="482.5" y="-741" font-family="Helvetica,sans-Serif" font-size="10.00" fill="#1f4433">FAST COE RARE MMOPT LIN QUAD GO AFLGO ENTROPIC KATZ DOPPLER</text>
<text text-anchor="start" x="482.5" y="-730" font-family="Helvetica,sans-Serif" font-size="10.00" fill="#1f4433">KRUSKAL&#45;COUNT (coupling walkers · recombination)</text>
</g>
<!-- profiler&#45;&gt;picker -->
<g id="edge8" class="edge">
<title>profiler&#45;&gt;picker</title>
<path fill="none" stroke="#68727e" stroke-width="1.1" stroke-dasharray="5,2" d="M505.89,-847.38C534.61,-828.99 574.81,-803.26 606.68,-782.86"/>
<polygon fill="#68727e" stroke="#68727e" stroke-width="1.1" points="608.08,-784.79 612.52,-779.11 605.51,-780.78 608.08,-784.79"/>
<text text-anchor="middle" x="617" y="-817.2" font-family="Helvetica,sans-Serif" font-size="8.50">distance · boundary markers &#160;</text>
</g>
<!-- ops -->
<g id="node7" class="node">
<title>ops</title>
<path fill="#c9cbe6" stroke="transparent" stroke-width="0" d="M768,-635.5C768,-635.5 548,-635.5 548,-635.5 542,-635.5 536,-629.5 536,-623.5 536,-623.5 536,-609.5 536,-609.5 536,-603.5 542,-597.5 548,-597.5 548,-597.5 768,-597.5 768,-597.5 774,-597.5 780,-603.5 780,-609.5 780,-609.5 780,-623.5 780,-623.5 780,-629.5 774,-635.5 768,-635.5"/>
<text text-anchor="start" x="548" y="-619.5" font-family="Helvetica,sans-Serif" font-size="10.00" fill="#2f3560">services/operators.py</text>
<text text-anchor="start" x="548" y="-608.5" font-family="Helvetica,sans-Serif" font-size="10.00" fill="#2f3560">dispatch · havoc (11 sub&#45;ops, adaptive draw)</text>
</g>
<!-- profiler&#45;&gt;ops -->
<g id="edge7" class="edge">
<title>profiler&#45;&gt;ops</title>
<path fill="none" stroke="#68727e" stroke-width="1.1" stroke-dasharray="5,2" d="M417.22,-847.27C401.38,-837.24 385.83,-823.9 377,-807 357.24,-769.18 350.77,-744.66 377,-711 411.65,-666.53 446.34,-697.29 500,-680 537.61,-667.88 579.13,-651.33 610.16,-638.3"/>
<polygon fill="#68727e" stroke="#68727e" stroke-width="1.1" points="611.28,-640.41 616.62,-635.58 609.43,-636.03 611.28,-640.41"/>
<text text-anchor="middle" x="416.5" y="-746.7" font-family="Helvetica,sans-Serif" font-size="8.50">dictionary tokens &#160;</text>
</g>
<!-- fuzzer&#45;&gt;picker -->
<g id="edge2" class="edge">
<title>fuzzer&#45;&gt;picker</title>
<path fill="none" stroke="#3f4a58" stroke-width="1.8" d="M781.68,-845.93C758.36,-827.85 726.64,-803.24 701.16,-783.48"/>
<polygon fill="#3f4a58" stroke="#3f4a58" stroke-width="1.8" points="702.33,-781.37 695.49,-779.08 699.41,-785.13 702.33,-781.37"/>
<text text-anchor="middle" x="772.5" y="-817.2" font-family="Helvetica,sans-Serif" font-size="8.50"> &#160;pick seed</text>
</g>
<!-- tarena -->
<g id="node6" class="node">
<title>tarena</title>
<path fill="#d8eade" stroke="transparent" stroke-width="0" d="M1207.5,-779C1207.5,-779 948.5,-779 948.5,-779 942.5,-779 936.5,-773 936.5,-767 936.5,-767 936.5,-731 936.5,-731 936.5,-725 942.5,-719 948.5,-719 948.5,-719 1207.5,-719 1207.5,-719 1213.5,-719 1219.5,-725 1219.5,-731 1219.5,-731 1219.5,-767 1219.5,-767 1219.5,-773 1213.5,-779 1207.5,-779"/>
<text text-anchor="start" x="948.5" y="-763" font-family="Helvetica,sans-Serif" font-size="10.00" fill="#1f4433">services/target_arena.py &#160;(multi&#45;target)</text>
<text text-anchor="start" x="948.5" y="-752" font-family="Helvetica,sans-Serif" font-size="10.00" fill="#1f4433">Elo over tgt_ arms: weighted round_robin wrr wfq phi</text>
<text text-anchor="start" x="948.5" y="-741" font-family="Helvetica,sans-Serif" font-size="10.00" fill="#1f4433">gale_shapley (core/stable_matching.py)</text>
<text text-anchor="start" x="948.5" y="-730" font-family="Helvetica,sans-Serif" font-size="10.00" fill="#1f4433">auction (core/assignment.py)</text>
</g>
<!-- fuzzer&#45;&gt;tarena -->
<g id="edge10" class="edge">
<title>fuzzer&#45;&gt;tarena</title>
<path fill="none" stroke="#68727e" stroke-width="1.1" d="M868.7,-845.93C909.15,-827.39 964.55,-802 1008.2,-781.99"/>
<polygon fill="#68727e" stroke="#68727e" stroke-width="1.1" points="1009.36,-784.08 1014.55,-779.08 1007.37,-779.75 1009.36,-784.08"/>
<text text-anchor="middle" x="956" y="-817.2" font-family="Helvetica,sans-Serif" font-size="8.50"> &#160;pick target</text>
</g>
<!-- picker&#45;&gt;ops -->
<g id="edge3" class="edge">
<title>picker&#45;&gt;ops</title>
<path fill="none" stroke="#3f4a58" stroke-width="1.8" d="M658,-718.71C658,-695.89 658,-664.54 658,-642.8"/>
<polygon fill="#3f4a58" stroke="#3f4a58" stroke-width="1.8" points="660.38,-642.62 658,-635.82 655.62,-642.62 660.38,-642.62"/>
<text text-anchor="middle" x="692.5" y="-690.2" font-family="Helvetica,sans-Serif" font-size="8.50"> &#160;seed + energy</text>
</g>
<!-- bandit -->
<g id="node5" class="node">
<title>bandit</title>
<path fill="#d8eade" stroke="transparent" stroke-width="0" d="M1664.5,-773.5C1664.5,-773.5 1255.5,-773.5 1255.5,-773.5 1249.5,-773.5 1243.5,-767.5 1243.5,-761.5 1243.5,-761.5 1243.5,-736.5 1243.5,-736.5 1243.5,-730.5 1249.5,-724.5 1255.5,-724.5 1255.5,-724.5 1664.5,-724.5 1664.5,-724.5 1670.5,-724.5 1676.5,-730.5 1676.5,-736.5 1676.5,-736.5 1676.5,-761.5 1676.5,-761.5 1676.5,-767.5 1670.5,-773.5 1664.5,-773.5"/>
<text text-anchor="start" x="1255.5" y="-757.5" font-family="Helvetica,sans-Serif" font-size="10.00" fill="#1f4433">core/schedulers/ (16) &#160;+ &#160;elo · shapley</text>
<text text-anchor="start" x="1255.5" y="-746.5" font-family="Helvetica,sans-Serif" font-size="10.00" fill="#1f4433">monte_carlo mopt exp3 gp_ucb cmaes contextual</text>
<text text-anchor="start" x="1255.5" y="-735.5" font-family="Helvetica,sans-Serif" font-size="10.00" fill="#1f4433">ducb swucb kl_ducb kl_swucb cucb hierarchical replicator epsilon_greedy mcts katz</text>
</g>
<!-- bandit&#45;&gt;ops -->
<g id="edge9" class="edge">
<title>bandit&#45;&gt;ops</title>
<path fill="none" stroke="#68727e" stroke-width="1.1" d="M1320.26,-724.47C1291.12,-719.8 1260.58,-715.09 1232,-711 1181.9,-703.83 1169.06,-704.41 1119,-697 995.75,-678.75 854.67,-653.82 761.38,-636.78"/>
<polygon fill="#68727e" stroke="#68727e" stroke-width="1.1" points="761.59,-634.39 754.47,-635.51 760.73,-639.08 761.59,-634.39"/>
<text text-anchor="middle" x="1140.5" y="-690.2" font-family="Helvetica,sans-Serif" font-size="8.50"> &#160;operator</text>
</g>
<!-- tarena&#45;&gt;picker -->
<g id="edge11" class="edge">
<title>tarena&#45;&gt;picker</title>
<path fill="none" stroke="#68727e" stroke-width="1.1" stroke-dasharray="5,2" d="M936.36,-749C909.48,-749 880.93,-749 852.74,-749"/>
<polygon fill="#68727e" stroke="#68727e" stroke-width="1.1" points="852.38,-746.62 845.58,-749 852.38,-751.38 852.38,-746.62"/>
<text text-anchor="middle" x="891" y="-754.2" font-family="Helvetica,sans-Serif" font-size="8.50"> &#160;matched seed</text>
</g>
<!-- ops&#45;&gt;bandit -->
<g id="edge28" class="edge">
<title>ops&#45;&gt;bandit</title>
<path fill="none" stroke="#2f7d5a" stroke-width="1.1" stroke-dasharray="5,2" d="M780.25,-632.39C882.94,-645.41 1033.4,-665.69 1164,-688 1223.97,-698.25 1290.39,-711.53 1345.09,-722.99"/>
<polygon fill="#2f7d5a" stroke="#2f7d5a" stroke-width="1.1" points="1344.9,-725.39 1352.05,-724.46 1345.88,-720.73 1344.9,-725.39"/>
<text text-anchor="middle" x="1229.5" y="-690.2" font-family="Helvetica,sans-Serif" font-size="8.50" fill="#2f7d5a">reward &#160;</text>
</g>
<!-- runner -->
<g id="node9" class="node">
<title>runner</title>
<path fill="#f2dcdc" stroke="transparent" stroke-width="0" d="M744,-514C744,-514 572,-514 572,-514 566,-514 560,-508 560,-502 560,-502 560,-477 560,-477 560,-471 566,-465 572,-465 572,-465 744,-465 744,-465 750,-465 756,-471 756,-477 756,-477 756,-502 756,-502 756,-508 750,-514 744,-514"/>
<text text-anchor="start" x="572" y="-498" font-family="Helvetica,sans-Serif" font-size="10.00" fill="#5c3232">services/runner.py &#160;+ &#160;adapters/</text>
<text text-anchor="start" x="572" y="-487" font-family="Helvetica,sans-Serif" font-size="10.00" fill="#5c3232">forkserver · process · inprocess</text>
<text text-anchor="start" x="572" y="-476" font-family="Helvetica,sans-Serif" font-size="10.00" fill="#5c3232">persistent_signal · network · ptrace</text>
</g>
<!-- ops&#45;&gt;runner -->
<g id="edge4" class="edge">
<title>ops&#45;&gt;runner</title>
<path fill="none" stroke="#3f4a58" stroke-width="1.8" d="M658,-597.32C658,-577.36 658,-544.95 658,-521.06"/>
<polygon fill="#3f4a58" stroke="#3f4a58" stroke-width="1.8" points="660.38,-521.06 658,-514.26 655.62,-521.06 660.38,-521.06"/>
<text text-anchor="middle" x="676.5" y="-552.2" font-family="Helvetica,sans-Serif" font-size="8.50"> &#160;mutant</text>
</g>
<!-- lib -->
<g id="node8" class="node">
<title>lib</title>
<path fill="#dedff0" stroke="transparent" stroke-width="0" d="M476,-652C476,-652 104,-652 104,-652 98,-652 92,-646 92,-640 92,-640 92,-593 92,-593 92,-587 98,-581 104,-581 104,-581 476,-581 476,-581 482,-581 488,-587 488,-593 488,-593 488,-640 488,-640 488,-646 482,-652 476,-652"/>
<text text-anchor="start" x="104" y="-636" font-family="Helvetica,sans-Serif" font-size="10.00" fill="#2f3560">core/mutations/ (36 format ops) &#160;· &#160;core/operator_registry.py</text>
<text text-anchor="start" x="104" y="-625" font-family="Helvetica,sans-Serif" font-size="10.00" fill="#2f3560">png jpeg gif webp webm avif zip gzip zlib riff ogg flv asf mp3</text>
<text text-anchor="start" x="104" y="-614" font-family="Helvetica,sans-Serif" font-size="10.00" fill="#2f3560">adts mpegts nal isobmff pgs sqlite der elf protobuf x86 arm</text>
<text text-anchor="start" x="104" y="-603" font-family="Helvetica,sans-Serif" font-size="10.00" fill="#2f3560">grammar · format_fsm · tree_mutator · frameshift · markov · wfc · regularity</text>
<text text-anchor="start" x="104" y="-592" font-family="Helvetica,sans-Serif" font-size="10.00" fill="#2f3560">checksum_learner (Berlekamp&#45;Massey)</text>
</g>
<!-- lib&#45;&gt;ops -->
<g id="edge12" class="edge">
<title>lib&#45;&gt;ops</title>
<path fill="none" stroke="#68727e" stroke-width="1.1" stroke-dasharray="1,5" d="M488.02,-616.5C503.95,-616.5 519.89,-616.5 535.82,-616.5"/>
</g>
<!-- target -->
<g id="node11" class="node">
<title>target</title>
<polygon fill="#5c3232" stroke="transparent" stroke-width="0" points="540.5,-403 467.5,-403 467.5,-367 540.5,-367 540.5,-403"/>
<text text-anchor="middle" x="504" y="-382.5" font-family="Helvetica,sans-Serif" font-size="10.00" fill="white">TARGET</text>
</g>
<!-- runner&#45;&gt;target -->
<g id="edge5" class="edge">
<title>runner&#45;&gt;target</title>
<path fill="none" stroke="#68727e" stroke-width="1.5" d="M622.67,-464.98C596.36,-447.47 560.77,-423.78 535.44,-406.93"/>
<polygon fill="#68727e" stroke="#68727e" stroke-width="1.5" points="536.54,-404.8 529.56,-403.01 533.9,-408.76 536.54,-404.8"/>
</g>
<!-- shim -->
<g id="node10" class="node">
<title>shim</title>
<path fill="#e8c9c9" stroke="transparent" stroke-width="0" d="M524,-514C524,-514 350,-514 350,-514 344,-514 338,-508 338,-502 338,-502 338,-477 338,-477 338,-471 344,-465 350,-465 350,-465 524,-465 524,-465 530,-465 536,-471 536,-477 536,-477 536,-502 536,-502 536,-508 530,-514 524,-514"/>
<text text-anchor="start" x="350" y="-498" font-family="Helvetica,sans-Serif" font-size="10.00" fill="#5c3232">adapters/afl_shim.c</text>
<text text-anchor="start" x="350" y="-487" font-family="Helvetica,sans-Serif" font-size="10.00" fill="#5c3232">edge map · forkserver</text>
<text text-anchor="start" x="350" y="-476" font-family="Helvetica,sans-Serif" font-size="10.00" fill="#5c3232">cmplog interceptors (18 libc + 9 IR)</text>
</g>
<!-- shim&#45;&gt;target -->
<g id="edge13" class="edge">
<title>shim&#45;&gt;target</title>
<path fill="none" stroke="#68727e" stroke-width="1.1" stroke-dasharray="1,5" d="M452.37,-464.98C464.73,-446.07 481.81,-419.95 492.88,-403.01"/>
<text text-anchor="middle" x="499" y="-431.7" font-family="Helvetica,sans-Serif" font-size="8.50"> &#160;linked in</text>
</g>
<!-- cov -->
<g id="node12" class="node">
<title>cov</title>
<path fill="#c6dcea" stroke="transparent" stroke-width="0" d="M677,-294.5C677,-294.5 331,-294.5 331,-294.5 325,-294.5 319,-288.5 319,-282.5 319,-282.5 319,-257.5 319,-257.5 319,-251.5 325,-245.5 331,-245.5 331,-245.5 677,-245.5 677,-245.5 683,-245.5 689,-251.5 689,-257.5 689,-257.5 689,-282.5 689,-282.5 689,-288.5 683,-294.5 677,-294.5"/>
<text text-anchor="start" x="331" y="-278.5" font-family="Helvetica,sans-Serif" font-size="10.00" fill="#22475c">adapters/shm.py &#160;→ &#160;core/edge_tracker.py</text>
<text text-anchor="start" x="331" y="-267.5" font-family="Helvetica,sans-Serif" font-size="10.00" fill="#22475c">SHM bitmap · hit buckets · per&#45;edge max counts (PerfFuzz)</text>
<text text-anchor="start" x="331" y="-256.5" font-family="Helvetica,sans-Serif" font-size="10.00" fill="#22475c">edge_owner_count → rarity · Chao2 richness · Zipf/Heaps fit · first&#45;seen</text>
</g>
<!-- target&#45;&gt;cov -->
<g id="edge6" class="edge">
<title>target&#45;&gt;cov</title>
<path fill="none" stroke="#3f4a58" stroke-width="1.8" d="M504,-366.84C504,-349.53 504,-322.45 504,-301.48"/>
<polygon fill="#3f4a58" stroke="#3f4a58" stroke-width="1.8" points="506.38,-301.43 504,-294.63 501.62,-301.43 506.38,-301.43"/>
<text text-anchor="middle" x="522" y="-338.2" font-family="Helvetica,sans-Serif" font-size="8.50"> &#160;bitmap</text>
</g>
<!-- cmplog -->
<g id="node13" class="node">
<title>cmplog</title>
<path fill="#c6dcea" stroke="transparent" stroke-width="0" d="M283,-300C283,-300 119,-300 119,-300 113,-300 107,-294 107,-288 107,-288 107,-252 107,-252 107,-246 113,-240 119,-240 119,-240 283,-240 283,-240 289,-240 295,-246 295,-252 295,-252 295,-288 295,-288 295,-294 289,-300 283,-300"/>
<text text-anchor="start" x="119" y="-284" font-family="Helvetica,sans-Serif" font-size="10.00" fill="#22475c">core/cmplog.py</text>
<text text-anchor="start" x="119" y="-273" font-family="Helvetica,sans-Serif" font-size="10.00" fill="#22475c">pairs + tokens · fired/asserted</text>
<text text-anchor="start" x="119" y="-262" font-family="Helvetica,sans-Serif" font-size="10.00" fill="#22475c">per callback and per call site (PC)</text>
<text text-anchor="start" x="119" y="-251" font-family="Helvetica,sans-Serif" font-size="10.00" fill="#22475c">walls · progress reward</text>
</g>
<!-- target&#45;&gt;cmplog -->
<g id="edge14" class="edge">
<title>target&#45;&gt;cmplog</title>
<path fill="none" stroke="#68727e" stroke-width="1.1" d="M467.26,-376.07C427.09,-366.83 361.2,-349.98 307,-328 289.99,-321.1 272.17,-312.23 256.11,-303.55"/>
<polygon fill="#68727e" stroke="#68727e" stroke-width="1.1" points="256.92,-301.28 249.81,-300.1 254.63,-305.45 256.92,-301.28"/>
<text text-anchor="middle" x="382.5" y="-338.2" font-family="Helvetica,sans-Serif" font-size="8.50"> &#160;cmp channels</text>
</g>
<!-- crash -->
<g id="node17" class="node">
<title>crash</title>
<path fill="#f0dfcd" stroke="transparent" stroke-width="0" d="M1121,-300C1121,-300 875,-300 875,-300 869,-300 863,-294 863,-288 863,-288 863,-252 863,-252 863,-246 869,-240 875,-240 875,-240 1121,-240 1121,-240 1127,-240 1133,-246 1133,-252 1133,-252 1133,-288 1133,-288 1133,-294 1127,-300 1121,-300"/>
<text text-anchor="start" x="875" y="-284" font-family="Helvetica,sans-Serif" font-size="10.00" fill="#5c4227">core/sanitizer.py → crash_metadata.py</text>
<text text-anchor="start" x="875" y="-273" font-family="Helvetica,sans-Serif" font-size="10.00" fill="#5c4227">ASAN MSAN TSAN LSAN UBSAN · dedup · tiers</text>
<text text-anchor="start" x="875" y="-262" font-family="Helvetica,sans-Serif" font-size="10.00" fill="#5c4227">services/tmin · minimize · root_cause · differential</text>
<text text-anchor="start" x="875" y="-251" font-family="Helvetica,sans-Serif" font-size="10.00" fill="#5c4227">core/reducer (C&#45;Reduce passes · fixpoint · cache)</text>
</g>
<!-- target&#45;&gt;crash -->
<g id="edge15" class="edge">
<title>target&#45;&gt;crash</title>
<path fill="none" stroke="#68727e" stroke-width="1.1" d="M540.73,-375.6C608.24,-360.16 755.14,-326.55 864.33,-301.58"/>
<polygon fill="#68727e" stroke="#68727e" stroke-width="1.1" points="865.04,-303.86 871.14,-300.02 863.98,-299.22 865.04,-303.86"/>
<text text-anchor="middle" x="738.5" y="-338.2" font-family="Helvetica,sans-Serif" font-size="8.50"> &#160;signal / stderr</text>
</g>
<!-- cov&#45;&gt;picker -->
<g id="edge26" class="edge">
<title>cov&#45;&gt;picker</title>
<path fill="none" stroke="#2f7d5a" stroke-width="1.6" d="M559.98,-294.57C599.21,-310.43 653.16,-330.94 702,-345 731.65,-353.54 747.39,-338 770,-359 838.38,-422.51 758.44,-504.21 834,-559 991.74,-673.38 1137.25,-531.26 1253,-688 1255.38,-691.22 1255.77,-694.11 1253,-697 1240.38,-710.17 943.16,-709.36 925,-711 901.46,-713.13 876.82,-715.86 852.43,-718.87"/>
<polygon fill="#2f7d5a" stroke="#2f7d5a" stroke-width="1.6" points="852.01,-716.52 845.55,-719.72 852.6,-721.24 852.01,-716.52"/>
<text text-anchor="middle" x="848" y="-487.2" font-family="Helvetica,sans-Serif" font-size="8.50" fill="#2f7d5a">rarity · Chao2 &#160;</text>
</g>
<!-- infoth -->
<g id="node14" class="node">
<title>infoth</title>
<path fill="#d6e6f0" stroke="transparent" stroke-width="0" d="M450.5,-173C450.5,-173 201.5,-173 201.5,-173 195.5,-173 189.5,-167 189.5,-161 189.5,-161 189.5,-125 189.5,-125 189.5,-119 195.5,-113 201.5,-113 201.5,-113 450.5,-113 450.5,-113 456.5,-113 462.5,-119 462.5,-125 462.5,-125 462.5,-161 462.5,-161 462.5,-167 456.5,-173 450.5,-173"/>
<text text-anchor="start" x="201.5" y="-157" font-family="Helvetica,sans-Serif" font-size="10.00" fill="#22475c">mi · transfer_entropy · renyi · sensitivity</text>
<text text-anchor="start" x="201.5" y="-146" font-family="Helvetica,sans-Serif" font-size="10.00" fill="#22475c">structure_function · critical_slowing · running_stats</text>
<text text-anchor="start" x="201.5" y="-135" font-family="Helvetica,sans-Serif" font-size="10.00" fill="#22475c">perf_event (HW counters) · pll (lock vs stall)</text>
<text text-anchor="start" x="201.5" y="-124" font-family="Helvetica,sans-Serif" font-size="10.00" fill="#22475c">pool_drift (corpus vs seed bytes)</text>
</g>
<!-- cov&#45;&gt;infoth -->
<g id="edge16" class="edge">
<title>cov&#45;&gt;infoth</title>
<path fill="none" stroke="#68727e" stroke-width="1.1" stroke-dasharray="1,5" d="M470.52,-245.49C443.03,-226.18 403.76,-198.61 373.1,-177.07"/>
<polygon fill="#68727e" stroke="#68727e" stroke-width="1.1" points="374.41,-175.09 367.48,-173.13 371.67,-178.98 374.41,-175.09"/>
</g>
<!-- ledger -->
<g id="node15" class="node">
<title>ledger</title>
<path fill="#d6e6f0" stroke="transparent" stroke-width="0" d="M677,-167.5C677,-167.5 499,-167.5 499,-167.5 493,-167.5 487,-161.5 487,-155.5 487,-155.5 487,-130.5 487,-130.5 487,-124.5 493,-118.5 499,-118.5 499,-118.5 677,-118.5 677,-118.5 683,-118.5 689,-124.5 689,-130.5 689,-130.5 689,-155.5 689,-155.5 689,-161.5 683,-167.5 677,-167.5"/>
<text text-anchor="start" x="499" y="-151.5" font-family="Helvetica,sans-Serif" font-size="10.00" fill="#22475c">core/edge_ledger.py</text>
<text text-anchor="start" x="499" y="-140.5" font-family="Helvetica,sans-Serif" font-size="10.00" fill="#22475c">confirmed ids → families (id &gt;&gt; ctx)</text>
<text text-anchor="start" x="499" y="-129.5" font-family="Helvetica,sans-Serif" font-size="10.00" fill="#22475c">frontier · trust · tag occupancy</text>
</g>
<!-- cov&#45;&gt;ledger -->
<g id="edge17" class="edge">
<title>cov&#45;&gt;ledger</title>
<path fill="none" stroke="#68727e" stroke-width="1.1" stroke-dasharray="1,5" d="M501.8,-245.31C501.74,-233.76 503.23,-220.02 509,-209 516.65,-194.41 529.12,-181.86 541.92,-171.79"/>
<polygon fill="#68727e" stroke="#68727e" stroke-width="1.1" points="543.44,-173.63 547.42,-167.62 540.56,-169.83 543.44,-173.63"/>
</g>
<!-- corpus -->
<g id="node16" class="node">
<title>corpus</title>
<path fill="#e6dcee" stroke="transparent" stroke-width="0" d="M918.5,-173C918.5,-173 725.5,-173 725.5,-173 719.5,-173 713.5,-167 713.5,-161 713.5,-161 713.5,-125 713.5,-125 713.5,-119 719.5,-113 725.5,-113 725.5,-113 918.5,-113 918.5,-113 924.5,-113 930.5,-119 930.5,-125 930.5,-125 930.5,-161 930.5,-161 930.5,-167 924.5,-173 918.5,-173"/>
<text text-anchor="start" x="725.5" y="-157" font-family="Helvetica,sans-Serif" font-size="10.00" fill="#453454">services/corpus_manager.py</text>
<text text-anchor="start" x="725.5" y="-146" font-family="Helvetica,sans-Serif" font-size="10.00" fill="#453454">admission · prune · sync</text>
<text text-anchor="start" x="725.5" y="-135" font-family="Helvetica,sans-Serif" font-size="10.00" fill="#453454">ga · qea · rate_distortion · bloom dedup</text>
<text text-anchor="start" x="725.5" y="-124" font-family="Helvetica,sans-Serif" font-size="10.00" fill="#453454">state_store (resume) · parallel workers</text>
</g>
<!-- cov&#45;&gt;corpus -->
<g id="edge20" class="edge">
<title>cov&#45;&gt;corpus</title>
<path fill="none" stroke="#68727e" stroke-width="1.1" d="M582.53,-245.38C608.34,-237.2 637.05,-227.65 663,-218 681.1,-211.27 685.4,-208.95 703,-201 720.38,-193.15 739.05,-184.37 756.33,-176.11"/>
<polygon fill="#68727e" stroke="#68727e" stroke-width="1.1" points="757.52,-178.17 762.62,-173.09 755.46,-173.88 757.52,-178.17"/>
<text text-anchor="middle" x="718.5" y="-211.2" font-family="Helvetica,sans-Serif" font-size="8.50"> &#160;new coverage</text>
</g>
<!-- obs -->
<g id="node18" class="node">
<title>obs</title>
<path fill="#e3e7ec" stroke="transparent" stroke-width="0" d="M275.5,-54C275.5,-54 28.5,-54 28.5,-54 22.5,-54 16.5,-48 16.5,-42 16.5,-42 16.5,-28 16.5,-28 16.5,-22 22.5,-16 28.5,-16 28.5,-16 275.5,-16 275.5,-16 281.5,-16 287.5,-22 287.5,-28 287.5,-28 287.5,-42 287.5,-42 287.5,-48 281.5,-54 275.5,-54"/>
<text text-anchor="start" x="28.5" y="-38" font-family="Helvetica,sans-Serif" font-size="10.00" fill="#242a31">services/stats.py · stats_reporter.py · report.py</text>
<text text-anchor="start" x="28.5" y="-27" font-family="Helvetica,sans-Serif" font-size="10.00" fill="#242a31">live stat line · JSONL · &#45;&#45;report · Comparison Profile</text>
</g>
<!-- cov&#45;&gt;obs -->
<g id="edge23" class="edge">
<title>cov&#45;&gt;obs</title>
<path fill="none" stroke="#68727e" stroke-width="1.1" stroke-dasharray="5,2" d="M382.78,-245.44C291.25,-227.39 180.72,-204.93 177,-201 141.15,-163.13 143.35,-96.94 147.82,-60.98"/>
<polygon fill="#68727e" stroke="#68727e" stroke-width="1.1" points="150.18,-61.26 148.74,-54.21 145.47,-60.63 150.18,-61.26"/>
</g>
<!-- cmplog&#45;&gt;bandit -->
<g id="edge30" class="edge">
<title>cmplog&#45;&gt;bandit</title>
<path fill="none" stroke="#22688c" stroke-width="1.1" stroke-dasharray="5,2" d="M244.22,-300.08C262.74,-310.96 285.11,-322.1 307,-328 358.31,-341.84 492.98,-332.4 546,-336 558.48,-336.85 758.53,-354.01 770,-359 893.92,-412.88 877.7,-499.46 999,-559 1027.87,-573.17 1039.35,-563.24 1070,-573 1196.65,-613.32 1336.97,-682.88 1409.85,-721.03"/>
<polygon fill="#22688c" stroke="#22688c" stroke-width="1.1" points="1409.13,-723.34 1416.26,-724.39 1411.34,-719.12 1409.13,-723.34"/>
<text text-anchor="middle" x="995" y="-487.2" font-family="Helvetica,sans-Serif" font-size="8.50" fill="#22688c">walls / stall &#160;</text>
</g>
<!-- cmplog&#45;&gt;ops -->
<g id="edge29" class="edge">
<title>cmplog&#45;&gt;ops</title>
<path fill="none" stroke="#22688c" stroke-width="1.4" d="M243.93,-300.05C262.49,-311 284.98,-322.19 307,-328 345.36,-338.12 624.65,-330.96 664,-336 681.22,-338.21 684.84,-342.41 702,-345 725.01,-348.47 895.1,-342 911,-359 924.36,-373.28 917.57,-384.58 911,-403 906.75,-414.9 897.25,-413.1 893,-425 890.31,-432.53 888.1,-436.67 893,-443 916.89,-473.86 954.11,-434.14 978,-465 998.95,-492.06 999.32,-515.23 978,-542 953.87,-572.3 865.18,-591.14 787.28,-602.15"/>
<polygon fill="#22688c" stroke="#22688c" stroke-width="1.4" points="786.66,-599.84 780.25,-603.13 787.32,-604.55 786.66,-599.84"/>
<text text-anchor="start" x="893" y="-436.2" font-family="Helvetica,sans-Serif" font-size="8.50" fill="#22688c"> &#160;redqueen · colorize</text>
<text text-anchor="start" x="893" y="-427.2" font-family="Helvetica,sans-Serif" font-size="8.50" fill="#22688c"> &#160;SMT · magic bytes</text>
</g>
<!-- cmplog&#45;&gt;corpus -->
<g id="edge21" class="edge">
<title>cmplog&#45;&gt;corpus</title>
<path fill="none" stroke="#68727e" stroke-width="1.1" d="M276.76,-239.95C286.82,-236.86 297.08,-234.09 307,-232 431.77,-205.66 465.85,-218.74 593,-209 641.87,-205.26 655.63,-213.58 703,-201 724.38,-195.32 746.55,-185.82 765.89,-176.18"/>
<polygon fill="#68727e" stroke="#68727e" stroke-width="1.1" points="767.07,-178.25 772.06,-173.06 764.92,-174.01 767.07,-178.25"/>
<text text-anchor="middle" x="625" y="-211.2" font-family="Helvetica,sans-Serif" font-size="8.50"> &#160;cmp progress</text>
</g>
<!-- cmplog&#45;&gt;obs -->
<g id="edge24" class="edge">
<title>cmplog&#45;&gt;obs</title>
<path fill="none" stroke="#68727e" stroke-width="1.1" stroke-dasharray="5,2" d="M150.42,-239.92C143.39,-233.63 137.16,-226.32 133,-218 107.32,-166.64 127.37,-97.08 141.38,-60.62"/>
<polygon fill="#68727e" stroke="#68727e" stroke-width="1.1" points="143.63,-61.41 143.92,-54.21 139.2,-59.66 143.63,-61.41"/>
</g>
<!-- infoth&#45;&gt;obs -->
<g id="edge25" class="edge">
<title>infoth&#45;&gt;obs</title>
<path fill="none" stroke="#68727e" stroke-width="1.1" stroke-dasharray="5,2" d="M277.99,-112.75C249.4,-95.34 213.73,-73.61 187.65,-57.72"/>
<polygon fill="#68727e" stroke="#68727e" stroke-width="1.1" points="188.61,-55.52 181.57,-54.01 186.14,-59.58 188.61,-55.52"/>
</g>
<!-- ledger&#45;&gt;picker -->
<g id="edge18" class="edge">
<title>ledger&#45;&gt;picker</title>
<path fill="none" stroke="#2f7d5a" stroke-width="1.1" stroke-dasharray="5,2" d="M557.12,-167.82C540.95,-183.1 527.12,-202.85 541,-218 565.11,-244.31 672.44,-210.59 701,-232 744.12,-264.33 701.67,-312.95 745,-345 778.68,-369.91 896.2,-338.97 933,-359 1025.49,-409.33 986.48,-483.62 1060,-559 1138.49,-639.49 1349.88,-615.92 1272,-697 1258.64,-710.91 944.22,-709.28 925,-711 901.46,-713.1 876.82,-715.81 852.42,-718.81"/>
<polygon fill="#2f7d5a" stroke="#2f7d5a" stroke-width="1.1" points="852,-716.47 845.55,-719.67 852.59,-721.19 852,-716.47"/>
<text text-anchor="middle" x="1016.5" y="-431.7" font-family="Helvetica,sans-Serif" font-size="8.50">strata &#160;</text>
</g>
<!-- ledger&#45;&gt;bandit -->
<g id="edge19" class="edge">
<title>ledger&#45;&gt;bandit</title>
<path fill="none" stroke="#2f7d5a" stroke-width="1.1" stroke-dasharray="5,2" d="M573.75,-167.83C566.17,-183.91 560.69,-204.57 573,-218 597.27,-244.47 703.44,-213.13 734,-232 776.61,-258.31 760.41,-289.98 793,-328 800.59,-336.86 802.23,-340.51 813,-345 880.11,-372.99 908.51,-331.94 976,-359 1081.34,-401.24 1340.82,-637.15 1429.62,-719.57"/>
<polygon fill="#2f7d5a" stroke="#2f7d5a" stroke-width="1.1" points="1428.12,-721.43 1434.72,-724.31 1431.36,-717.94 1428.12,-721.43"/>
<text text-anchor="middle" x="1127" y="-431.7" font-family="Helvetica,sans-Serif" font-size="8.50">stratum &#160;</text>
</g>
<!-- corpus&#45;&gt;picker -->
<g id="edge27" class="edge">
<title>corpus&#45;&gt;picker</title>
<path fill="none" stroke="#7a5c99" stroke-width="1.4" d="M811.92,-173.25C798.88,-217.06 782.73,-299.43 827,-345 847.16,-365.75 1062.06,-344.34 1087,-359 1238.85,-448.28 1416.18,-570.1 1294,-697 1279.77,-711.78 945.44,-709.2 925,-711 901.46,-713.07 876.81,-715.77 852.42,-718.76"/>
<polygon fill="#7a5c99" stroke="#7a5c99" stroke-width="1.4" points="852,-716.41 845.54,-719.61 852.59,-721.14 852,-716.41"/>
<text text-anchor="middle" x="1231.5" y="-431.7" font-family="Helvetica,sans-Serif" font-size="8.50" fill="#7a5c99">queue &#160;</text>
</g>
<!-- crash&#45;&gt;corpus -->
<g id="edge22" class="edge">
<title>crash&#45;&gt;corpus</title>
<path fill="none" stroke="#68727e" stroke-width="1.1" stroke-dasharray="5,2" d="M956.74,-239.69C930.37,-220.96 896.11,-196.63 868.74,-177.19"/>
<polygon fill="#68727e" stroke="#68727e" stroke-width="1.1" points="869.93,-175.12 863.01,-173.12 867.17,-179 869.93,-175.12"/>
<text text-anchor="middle" x="950" y="-211.2" font-family="Helvetica,sans-Serif" font-size="8.50"> &#160;minimized</text>
</g>
</g>
</svg>
